<?xml version="1.0" encoding="UTF-8"?>
<svg width="26px" height="26px" viewBox="0 0 26 26" version="1.1" xmlns="http://www.w3.org/2000/svg" xmlns:xlink="http://www.w3.org/1999/xlink">
    <!-- Generator: Sketch 53.2 (72643) - https://sketchapp.com -->
    <title>avg-scores-symbol</title>
    <desc>Created with Sketch.</desc>
    <defs>
        <linearGradient x1="-154.142308%" y1="-141.633128%" x2="-154.142308%" y2="232.804362%" id="linearGradient-1">
            <stop stop-color="#075ED2" offset="0%"></stop>
            <stop stop-color="#04164F" offset="100%"></stop>
        </linearGradient>
    </defs>
    <g id="Page-1" stroke="none" stroke-width="1" fill="none" fill-rule="evenodd">
        <g id="Homepage-992-V1" transform="translate(-96.000000, -855.000000)">
            <g id="avg-scores-symbol" transform="translate(96.000000, 855.000000)">
                <circle id="Oval" fill="#EEFCFF" cx="13" cy="13" r="13"></circle>
                <g id="Group-71" transform="translate(6.240000, 4.160000)">
                    <rect id="Rectangle-2-Copy-7" fill="#4EB5FF" transform="translate(0.781017, 12.827941) scale(-1, 1) translate(-0.781017, -12.827941) " x="-8.45545856e-13" y="9.79588235" width="1.56203342" height="6.06411765"></rect>
                    <rect id="Rectangle-2-Copy-19" fill="#4EB5FF" transform="translate(8.752994, 8.832651) scale(-1, 1) translate(-8.752994, -8.832651) " x="7.97197772" y="1.80530176" width="1.56203342" height="14.0546982"></rect>
                    <rect id="Rectangle-2-Copy-20" fill="#4EB5FF" transform="translate(12.738983, 12.827941) scale(-1, 1) translate(-12.738983, -12.827941) " x="11.9579666" y="9.79588235" width="1.56203342" height="6.06411765"></rect>
                    <rect id="Rectangle-2-Copy-21" fill="#4EB5FF" x="3.98598886" y="1.80530176" width="1.56203342" height="14.0546982"></rect>
                    <rect id="Rectangle-2-Copy-22" fill="#4EB5FF" transform="translate(2.774011, 10.619778) scale(-1, 1) translate(-2.774011, -10.619778) " x="1.99299443" y="5.37955691" width="1.56203342" height="10.4804431"></rect>
                    <rect id="Rectangle-2-Copy-23" fill="#4EB5FF" transform="translate(10.745989, 10.619778) scale(-1, 1) translate(-10.745989, -10.619778) " x="9.96497215" y="5.37955691" width="1.56203342" height="10.4804431"></rect>
                    <rect id="Rectangle-2-Copy-25" fill="url(#linearGradient-1)" x="5.97898329" y="0" width="1.56203342" height="15.86"></rect>
                </g>
            </g>
        </g>
    </g>
</svg>