<?xml version="1.0" encoding="UTF-8"?>
<svg width="26px" height="26px" viewBox="0 0 26 26" version="1.1" xmlns="http://www.w3.org/2000/svg" xmlns:xlink="http://www.w3.org/1999/xlink">
    <!-- Generator: Sketch 53.2 (72643) - https://sketchapp.com -->
    <title>trend-scores-symbol</title>
    <desc>Created with Sketch.</desc>
    <defs>
        <linearGradient x1="66.0317073%" y1="116.469439%" x2="24.8872163%" y2="-106.654986%" id="linearGradient-1">
            <stop stop-color="#0032A3" offset="0%"></stop>
            <stop stop-color="#179BFF" offset="70.6572496%"></stop>
            <stop stop-color="#169CF7" offset="100%"></stop>
        </linearGradient>
        <linearGradient x1="71.8389583%" y1="116.469439%" x2="15.7904784%" y2="-106.654986%" id="linearGradient-2">
            <stop stop-color="#0032A3" offset="0%"></stop>
            <stop stop-color="#179BFF" offset="70.6572496%"></stop>
            <stop stop-color="#169CF7" offset="100%"></stop>
        </linearGradient>
        <linearGradient x1="62.4254035%" y1="116.469439%" x2="30.5362919%" y2="-106.654986%" id="linearGradient-3">
            <stop stop-color="#0032A3" offset="0%"></stop>
            <stop stop-color="#179BFF" offset="70.6572496%"></stop>
            <stop stop-color="#169CF7" offset="100%"></stop>
        </linearGradient>
    </defs>
    <g id="Page-1" stroke="none" stroke-width="1" fill="none" fill-rule="evenodd">
        <g id="Homepage-992-V1" transform="translate(-94.000000, -1718.000000)">
            <g id="trend-scores-symbol" transform="translate(94.000000, 1718.000000)">
                <circle id="Oval" fill="#EEFCFF" cx="13" cy="13" r="13"></circle>
                <path d="M16.0070775,19.6310688 C16.0782843,20.1430795 15.720942,20.6158708 15.2089312,20.6870775 C14.6969205,20.7582843 14.2241292,20.400942 14.1529225,19.8889312 C13.8861901,17.9709977 13.0423239,15.8841809 11.6093195,13.632553 C10.0396121,11.1661284 9.10612588,8.8297371 8.82165728,6.61948136 C8.75566955,6.10677183 9.11780912,5.63764501 9.63051864,5.57165728 C10.1432282,5.50566955 10.612355,5.86780912 10.6783427,6.38051864 C10.9247074,8.29471603 11.7571964,10.3783247 13.1886061,12.627447 C14.7567189,15.091366 15.7002107,17.4245492 16.0070775,19.6310688 Z" id="Line-3-Copy-8" fill="url(#linearGradient-1)" fill-rule="nonzero" transform="translate(12.415006, 13.130006) rotate(-270.000000) translate(-12.415006, -13.130006) "></path>
                <path d="M16.7283655,15.3279596 C16.8333855,15.8341179 16.5081987,16.3295759 16.0020404,16.4345959 C15.4958821,16.539616 15.0004241,16.2144291 14.8954041,15.7082708 C14.5124545,13.8625934 13.4800782,11.7684887 11.7862603,9.43848943 C9.94794898,6.90972647 8.8023039,4.58351462 8.3614335,2.44729927 C8.25695004,1.94102993 8.58266186,1.44591696 9.0889312,1.3414335 C9.59520054,1.23695004 10.0903135,1.56266186 10.194797,2.0689312 C10.575622,3.91419953 11.6067998,6.00798768 13.3004389,8.33774104 C15.1385715,10.8662581 16.2852186,13.1921534 16.7283655,15.3279596 Z" id="Line-3-Copy-9" fill="url(#linearGradient-2)" fill-rule="nonzero" transform="translate(12.545001, 8.888116) rotate(-270.000000) translate(-12.545001, -8.888116) "></path>
                <path d="M15.7119214,23.6219078 C15.7554658,24.1370091 15.3731935,24.5898809 14.8580922,24.6334253 C14.3429909,24.6769697 13.8901191,24.2946974 13.8465747,23.7795961 C13.7180661,22.2594265 12.9764472,20.178737 11.6101309,17.5700246 C10.1271717,14.7386053 9.37475195,12.3719799 9.37475195,10.440752 C9.37475195,9.92381343 9.79381343,9.50475195 10.310752,9.50475195 C10.8276905,9.50475195 11.246752,9.92381343 11.246752,10.440752 C11.246752,12.0174928 11.913357,14.1142006 13.2684473,16.7014794 C14.7401806,19.5114648 15.5585343,21.807442 15.7119214,23.6219078 Z" id="Line-3-Copy-10" fill="url(#linearGradient-3)" fill-rule="nonzero" transform="translate(12.545027, 17.070779) rotate(-270.000000) translate(-12.545027, -17.070779) "></path>
            </g>
        </g>
    </g>
</svg>