<?xml version="1.0" encoding="UTF-8"?>
<svg width="283px" height="30px" viewBox="0 0 283 30" version="1.1" xmlns="http://www.w3.org/2000/svg" xmlns:xlink="http://www.w3.org/1999/xlink">
    <!-- Generator: Sketch 53.2 (72643) - https://sketchapp.com -->
    <title>logo-ext-2</title>
    <desc>Created with Sketch.</desc>
    <defs>
        <linearGradient x1="0%" y1="49.9131945%" x2="77.7265605%" y2="51.3351636%" id="linearGradient-1">
            <stop stop-color="#032664" offset="0%"></stop>
            <stop stop-color="#115992" offset="100%"></stop>
        </linearGradient>
        <linearGradient x1="0%" y1="49.9131944%" x2="77.7265605%" y2="51.3351637%" id="linearGradient-2">
            <stop stop-color="#032664" offset="0%"></stop>
            <stop stop-color="#115992" offset="100%"></stop>
        </linearGradient>
        <linearGradient x1="23.5993168%" y1="100.497361%" x2="80.2211887%" y2="27.1884872%" id="linearGradient-3">
            <stop stop-color="#032664" offset="0%"></stop>
            <stop stop-color="#28B0E1" offset="51.6528179%"></stop>
            <stop stop-color="#2CD2A4" offset="100%"></stop>
        </linearGradient>
    </defs>
    <g id="Page-1" stroke="none" stroke-width="1" fill="none" fill-rule="evenodd">
        <g id="Artboard" transform="translate(-148.000000, -91.000000)">
            <g id="logo-ext-2" transform="translate(147.382991, 91.130435)">
                <g id="Wordmark-Copy" transform="translate(35.361708, 0.000000)" fill="#032664" fill-rule="nonzero">
                    <path d="M5.0738574,2.80684202 L5.0738574,10.569422 L3.34450542,10.569422 L3.34450542,2.80684202 L0.795986709,2.80684202 L0.795986709,1.29853502 L7.72639729,1.29853502 L7.72639729,2.80684202 L5.0738574,2.80684202 Z M10.7148991,10.569422 L9.07656561,10.569422 L9.07656561,0.557384175 L10.7148991,0.557384175 L10.7148991,4.39316489 C11.1699917,3.48297963 12.0151637,2.91086319 13.1984045,2.91086319 C15.0057724,2.91086319 15.902955,4.05509608 15.902955,5.91447453 L15.902955,10.569422 L14.1866057,10.569422 L14.1866057,6.3825698 C14.1866057,5.19932897 13.770521,4.39316489 12.5352696,4.39316489 C11.3390261,4.39316489 10.7148991,5.31635279 10.7148991,6.65562538 L10.7148991,10.569422 Z M24.6386265,8.35897207 C24.2095392,9.88028171 23.0002931,10.7644617 21.0368935,10.7644617 C18.5143801,10.7644617 17.2791286,9.30816526 17.2791286,6.99369419 L17.2791286,6.81165713 C17.2791286,6.00549305 17.4351604,5.34235808 17.7472239,4.74423634 C18.3713509,3.57399816 19.5155838,2.91086319 21.0889041,2.91086319 C22.3761661,2.91086319 23.2863513,3.35295317 23.8844731,4.06809873 C24.4825948,4.78324428 24.7426477,5.70643218 24.7426477,6.66862802 L24.7426477,7.46178946 L18.9694727,7.46178946 C19.1125018,8.68403823 19.8666553,9.36017585 21.1019067,9.36017585 C22.012092,9.36017585 22.5452005,9.00910439 22.8052534,8.35897207 L24.6386265,8.35897207 Z M21.1019067,4.26313842 C19.9186659,4.26313842 19.177515,4.93927604 18.9824753,6.12251687 L23.039301,6.12251687 C22.9222772,4.97828398 22.2981502,4.26313842 21.1019067,4.26313842 Z M36.9609216,10.569422 L30.3815825,10.569422 L30.3815825,1.29853502 L36.7398766,1.29853502 L36.7398766,2.76783408 L32.0329186,2.76783408 L32.0329186,5.14731838 L36.024731,5.14731838 L36.024731,6.62962008 L32.0329186,6.62962008 L32.0329186,9.04811233 L36.9609216,9.04811233 L36.9609216,10.569422 Z M43.4991459,9.00910439 C43.0960638,10.0233108 42.2508918,10.7254537 40.9116192,10.7254537 C39.0002302,10.7254537 37.7389735,9.38618114 37.7389735,6.86366772 L37.7389735,6.68163067 C37.7389735,5.86246394 37.8820026,5.17332368 38.1550582,4.61420988 C38.7011693,3.49598228 39.6893704,2.92386584 40.9636298,2.92386584 C42.1988812,2.92386584 43.0180479,3.45697434 43.4471353,4.38016224 L43.4471353,0.557384175 L45.0984714,0.557384175 L45.0984714,10.569422 L43.6811829,10.569422 L43.4991459,9.00910439 Z M41.4317251,9.25615467 C42.7059844,9.25615467 43.4861432,8.33296677 43.4861432,6.85066507 L43.4861432,6.72063861 C43.4861432,5.27734485 42.7319897,4.3411543 41.4967383,4.3411543 C40.2094763,4.3411543 39.4943308,5.21233162 39.4943308,6.70763596 L39.4943308,6.85066507 C39.4943308,8.44999059 40.3004948,9.25615467 41.4317251,9.25615467 Z M51.7797248,9.13913086 C51.402648,10.1143293 50.5964839,10.7254537 49.3612325,10.7254537 C47.5668673,10.7254537 46.7216953,9.58122084 46.7216953,7.72184239 L46.7216953,3.09290024 L48.425042,3.09290024 L48.425042,7.25374712 C48.425042,8.4239853 48.7761134,9.23014938 49.9463516,9.23014938 C51.0775819,9.23014938 51.6496983,8.30696148 51.6496983,6.98069154 L51.6496983,3.09290024 L53.3660476,3.09290024 L53.3660476,10.569422 L51.9357565,10.569422 L51.7797248,9.13913086 Z M58.4609782,10.7644617 C56.0684912,10.7644617 54.7032133,9.42518908 54.7032133,6.98069154 L54.7032133,6.78565184 C54.7032133,5.95348247 54.8722477,5.23833691 55.1973139,4.66622046 C55.8604489,3.52198757 57.030687,2.91086319 58.4739808,2.91086319 C60.5414016,2.91086319 61.9586901,3.88606168 62.1277245,6.07050629 L62.1277245,6.09651158 L60.3463619,6.09651158 L60.3463619,6.05750364 C60.1903301,4.88726545 59.5271952,4.3671596 58.4869834,4.3671596 C57.29074,4.3671596 56.4715732,5.19932897 56.4715732,6.78565184 L56.4715732,6.95468625 C56.4715732,8.43698795 57.2257267,9.26915732 58.4739808,9.26915732 C59.5662031,9.26915732 60.1903301,8.69704088 60.3593645,7.55280798 L60.3593645,7.53980534 L62.1407271,7.53980534 L62.1407271,7.57881328 C61.9716927,9.78926318 60.5283989,10.7644617 58.4609782,10.7644617 Z M68.7179593,9.07411762 C68.2108561,10.0493161 67.2096523,10.7644617 65.6623374,10.7644617 C64.0370066,10.7644617 63.2178399,9.98430288 63.2178399,8.76205411 C63.2178399,7.92988473 63.581914,7.3057577 64.1930383,6.92868095 C64.4010807,6.78565184 64.6221257,6.68163067 64.830168,6.61661744 C65.272258,6.46058568 65.8313718,6.35656451 66.7675623,6.2135354 C68.1068349,6.04450099 68.6399434,5.86246394 68.6399434,5.25133956 C68.6399434,4.62721253 68.2368614,4.23713313 67.0666232,4.23713313 C65.8313718,4.23713313 65.272258,4.77024164 65.2202474,5.73243748 L63.4648901,5.73243748 C63.581914,4.02909079 64.830168,2.91086319 66.9756047,2.91086319 C67.7947714,2.91086319 68.4188985,3.01488436 68.912999,3.23592935 C69.8881975,3.65201404 70.2782769,4.44517547 70.2782769,5.52439513 L70.2782769,10.569422 L68.8999964,10.569422 L68.7179593,9.07411762 Z M66.2474565,9.45119437 C66.7415571,9.45119437 67.1576417,9.33417055 67.5217158,9.11312556 C68.249864,8.65803294 68.6529461,7.90387944 68.6529461,7.18873388 L68.6529461,6.78565184 C68.3408826,7.00669683 67.8207767,7.16272859 67.1446391,7.26674976 C66.2344538,7.40977887 65.8703797,7.51380005 65.5193083,7.73484504 C65.2202474,7.92988473 65.0772183,8.18993766 65.0772183,8.51500382 C65.0772183,9.13913086 65.4672977,9.45119437 66.2474565,9.45119437 Z M76.2053768,10.569422 L75.2431809,10.569422 C74.541038,10.569422 73.9949269,10.4654008 73.6308528,10.2963664 C72.8766993,9.91928965 72.6426517,9.10012292 72.6426517,7.57881328 L72.6426517,4.60120723 L71.1863552,4.60120723 L71.1863552,3.15791347 L71.8494902,3.15791347 C72.0965405,3.15791347 72.2655749,3.13190818 72.3825987,3.07989759 C72.629649,2.96287377 72.7076649,2.67681555 72.7466728,2.06569117 C72.7596755,1.740625 72.7726781,1.29853502 72.7726781,1.07749003 L74.2289745,1.07749003 L74.2289745,3.09290024 L76.2053768,3.09290024 L76.2053768,4.60120723 L74.2289745,4.60120723 L74.2289745,7.29275505 C74.2289745,7.78685562 74.2679825,8.15092972 74.3329957,8.39798001 C74.4500195,8.89208057 74.8400989,8.9830991 75.6722683,8.9830991 L76.2053768,8.9830991 L76.2053768,10.569422 Z M78.4527277,2.28673616 C77.633561,2.28673616 77.3214975,2.01368058 77.3214975,1.15550591 C77.3214975,0.323336538 77.6985742,0.0372783152 78.4527277,0.0372783152 C79.2068812,0.0372783152 79.583958,0.323336538 79.583958,1.15550591 C79.583958,1.96167 79.2198839,2.28673616 78.4527277,2.28673616 Z M77.5685478,10.569422 L77.5685478,3.09290024 L79.2978997,3.09290024 L79.2978997,10.569422 L77.5685478,10.569422 Z M84.4838488,10.7644617 C82.0653565,10.7644617 80.7130813,9.42518908 80.7130813,6.98069154 L80.7130813,6.78565184 C80.7130813,5.95348247 80.8821157,5.23833691 81.2071819,4.66622046 C81.8573142,3.52198757 83.0145497,2.91086319 84.4838488,2.91086319 C85.2380023,2.91086319 85.875132,3.0538923 86.4342458,3.36595582 C87.5784786,3.9770802 88.2546163,5.13431574 88.2546163,6.78565184 L88.2546163,6.98069154 C88.2546163,7.79985827 88.0985845,8.47599589 87.786521,9.03510968 C87.1363887,10.1663399 86.0051584,10.7644617 84.4838488,10.7644617 Z M84.4838488,9.26915732 C85.7711108,9.26915732 86.5252643,8.43698795 86.5252643,6.95468625 L86.5252643,6.78565184 C86.5252643,5.25133956 85.7321028,4.3671596 84.4968514,4.3671596 C83.2746027,4.3671596 82.4554359,5.19932897 82.4554359,6.78565184 L82.4554359,6.95468625 C82.4554359,8.43698795 83.2095894,9.26915732 84.4838488,9.26915732 Z M91.3991498,10.569422 L89.6828005,10.569422 L89.6828005,3.09290024 L91.1260942,3.09290024 L91.282126,4.58820459 C91.685208,3.56099551 92.53038,2.91086319 93.817642,2.91086319 C95.6250099,2.91086319 96.5872058,4.10710667 96.5872058,5.96648511 L96.5872058,10.569422 L94.8708564,10.569422 L94.8708564,6.3825698 C94.8708564,5.16032103 94.480777,4.39316489 93.2585282,4.39316489 C91.9842689,4.39316489 91.3991498,5.27734485 91.3991498,6.66862802 L91.3991498,10.569422 Z M103.333472,9.07411762 C102.826369,10.0493161 101.825165,10.7644617 100.27785,10.7644617 C98.6525196,10.7644617 97.8333529,9.98430288 97.8333529,8.76205411 C97.8333529,7.92988473 98.197427,7.3057577 98.8085514,6.92868095 C99.0165937,6.78565184 99.2376387,6.68163067 99.4456811,6.61661744 C99.887771,6.46058568 100.446885,6.35656451 101.383075,6.2135354 C102.722348,6.04450099 103.255456,5.86246394 103.255456,5.25133956 C103.255456,4.62721253 102.852374,4.23713313 101.682136,4.23713313 C100.446885,4.23713313 99.887771,4.77024164 99.8357605,5.73243748 L98.0804032,5.73243748 C98.197427,4.02909079 99.4456811,2.91086319 101.591118,2.91086319 C102.410284,2.91086319 103.034411,3.01488436 103.528512,3.23592935 C104.503711,3.65201404 104.89379,4.44517547 104.89379,5.52439513 L104.89379,10.569422 L103.515509,10.569422 L103.333472,9.07411762 Z M100.86297,9.45119437 C101.35707,9.45119437 101.773155,9.33417055 102.137229,9.11312556 C102.865377,8.65803294 103.268459,7.90387944 103.268459,7.18873388 L103.268459,6.78565184 C102.956396,7.00669683 102.43629,7.16272859 101.760152,7.26674976 C100.849967,7.40977887 100.485893,7.51380005 100.134821,7.73484504 C99.8357605,7.92988473 99.6927314,8.18993766 99.6927314,8.51500382 C99.6927314,9.13913086 100.082811,9.45119437 100.86297,9.45119437 Z M106.634038,10.569422 L106.634038,0.557384175 L108.337384,0.557384175 L108.337384,10.569422 L106.634038,10.569422 Z M118.00714,10.7644617 C115.445618,10.7644617 114.02833,9.38618114 114.02833,6.35656451 L114.02833,5.57640572 C114.02833,4.60120723 114.197364,3.8080458 114.52243,3.14491083 C115.185565,1.80563824 116.420817,1.12950062 118.020142,1.12950062 C118.826306,1.12950062 119.515447,1.28553238 120.126571,1.63660383 C121.322814,2.31274145 122.024957,3.62600875 122.024957,5.57640572 L122.024957,6.35656451 C122.024957,9.3471732 120.477642,10.7644617 118.00714,10.7644617 Z M118.020142,9.20414409 C119.515447,9.20414409 120.256597,8.18993766 120.256597,6.29155128 L120.256597,5.6544216 C120.256597,3.69102198 119.515447,2.66381291 118.020142,2.66381291 C116.498833,2.66381291 115.79669,3.73002992 115.79669,5.64141895 L115.79669,6.29155128 C115.79669,8.18993766 116.498833,9.20414409 118.020142,9.20414409 Z M127.679002,10.7254537 C126.44375,10.7254537 125.624583,10.1663399 125.182493,9.25615467 L125.182493,13.143946 L123.531157,13.143946 L123.531157,3.09290024 L124.948446,3.09290024 L125.130483,4.61420988 C125.533565,3.58700081 126.404742,2.91086319 127.705007,2.91086319 C129.655404,2.91086319 130.890655,4.28914372 130.890655,6.81165713 L130.890655,6.99369419 C130.890655,7.81286091 130.747626,8.48899853 130.474571,9.04811233 C129.928459,10.1663399 128.927256,10.7254537 127.679002,10.7254537 Z M127.145893,9.28215997 C128.420152,9.28215997 129.161303,8.44999059 129.161303,6.96768889 L129.161303,6.81165713 C129.161303,5.21233162 128.355139,4.3671596 127.184901,4.3671596 C125.94965,4.3671596 125.143486,5.30335014 125.143486,6.78565184 L125.143486,6.91567831 C125.143486,8.35897207 125.910642,9.28215997 127.145893,9.28215997 Z M136.440678,10.7254537 C135.205427,10.7254537 134.38626,10.1663399 133.94417,9.25615467 L133.94417,13.143946 L132.292834,13.143946 L132.292834,3.09290024 L133.710123,3.09290024 L133.89216,4.61420988 C134.295242,3.58700081 135.166419,2.91086319 136.466684,2.91086319 C138.417081,2.91086319 139.652332,4.28914372 139.652332,6.81165713 L139.652332,6.99369419 C139.652332,7.81286091 139.509303,8.48899853 139.236247,9.04811233 C138.690136,10.1663399 137.688932,10.7254537 136.440678,10.7254537 Z M135.90757,9.28215997 C137.181829,9.28215997 137.92298,8.44999059 137.92298,6.96768889 L137.92298,6.81165713 C137.92298,5.21233162 137.116816,4.3671596 135.946578,4.3671596 C134.711326,4.3671596 133.905162,5.30335014 133.905162,6.78565184 L133.905162,6.91567831 C133.905162,8.35897207 134.672318,9.28215997 135.90757,9.28215997 Z M144.669247,10.7644617 C142.250754,10.7644617 140.898479,9.42518908 140.898479,6.98069154 L140.898479,6.78565184 C140.898479,5.95348247 141.067514,5.23833691 141.39258,4.66622046 C142.042712,3.52198757 143.199948,2.91086319 144.669247,2.91086319 C145.4234,2.91086319 146.06053,3.0538923 146.619644,3.36595582 C147.763877,3.9770802 148.440014,5.13431574 148.440014,6.78565184 L148.440014,6.98069154 C148.440014,7.79985827 148.283982,8.47599589 147.971919,9.03510968 C147.321787,10.1663399 146.190556,10.7644617 144.669247,10.7644617 Z M144.669247,9.26915732 C145.956509,9.26915732 146.710662,8.43698795 146.710662,6.95468625 L146.710662,6.78565184 C146.710662,5.25133956 145.917501,4.3671596 144.682249,4.3671596 C143.460001,4.3671596 142.640834,5.19932897 142.640834,6.78565184 L142.640834,6.95468625 C142.640834,8.43698795 143.394987,9.26915732 144.669247,9.26915732 Z M149.868198,10.569422 L149.868198,3.09290024 L151.246479,3.09290024 L151.467524,4.84825752 C151.766585,3.6130061 152.533741,3.02788701 153.951029,3.02788701 L154.458133,3.02788701 L154.458133,4.75723899 L153.716982,4.75723899 C153.11886,4.75723899 152.67677,4.83525487 152.364707,4.99128663 C151.74058,5.2903475 151.54554,5.94047982 151.54554,7.110718 L151.54554,10.569422 L149.868198,10.569422 Z M160.398235,10.569422 L159.436039,10.569422 C158.733896,10.569422 158.187785,10.4654008 157.823711,10.2963664 C157.069558,9.91928965 156.83551,9.10012292 156.83551,7.57881328 L156.83551,4.60120723 L155.379214,4.60120723 L155.379214,3.15791347 L156.042349,3.15791347 C156.289399,3.15791347 156.458433,3.13190818 156.575457,3.07989759 C156.822507,2.96287377 156.900523,2.67681555 156.939531,2.06569117 C156.952534,1.740625 156.965536,1.29853502 156.965536,1.07749003 L158.421833,1.07749003 L158.421833,3.09290024 L160.398235,3.09290024 L160.398235,4.60120723 L158.421833,4.60120723 L158.421833,7.29275505 C158.421833,7.78685562 158.460841,8.15092972 158.525854,8.39798001 C158.642878,8.89208057 159.032957,8.9830991 159.865127,8.9830991 L160.398235,8.9830991 L160.398235,10.569422 Z M166.676407,9.13913086 C166.29933,10.1143293 165.493166,10.7254537 164.257914,10.7254537 C162.463549,10.7254537 161.618377,9.58122084 161.618377,7.72184239 L161.618377,3.09290024 L163.321724,3.09290024 L163.321724,7.25374712 C163.321724,8.4239853 163.672795,9.23014938 164.843033,9.23014938 C165.974264,9.23014938 166.54638,8.30696148 166.54638,6.98069154 L166.54638,3.09290024 L168.262729,3.09290024 L168.262729,10.569422 L166.832438,10.569422 L166.676407,9.13913086 Z M171.719326,10.569422 L170.002977,10.569422 L170.002977,3.09290024 L171.446271,3.09290024 L171.602303,4.58820459 C172.005385,3.56099551 172.850557,2.91086319 174.137819,2.91086319 C175.945187,2.91086319 176.907382,4.10710667 176.907382,5.96648511 L176.907382,10.569422 L175.191033,10.569422 L175.191033,6.3825698 C175.191033,5.16032103 174.800954,4.39316489 173.578705,4.39316489 C172.304446,4.39316489 171.719326,5.27734485 171.719326,6.66862802 L171.719326,10.569422 Z M179.440792,2.28673616 C178.621625,2.28673616 178.309561,2.01368058 178.309561,1.15550591 C178.309561,0.323336538 178.686638,0.0372783152 179.440792,0.0372783152 C180.194945,0.0372783152 180.572022,0.323336538 180.572022,1.15550591 C180.572022,1.96167 180.207948,2.28673616 179.440792,2.28673616 Z M178.556612,10.569422 L178.556612,3.09290024 L180.285964,3.09290024 L180.285964,10.569422 L178.556612,10.569422 Z M186.53813,10.569422 L185.575934,10.569422 C184.873791,10.569422 184.32768,10.4654008 183.963606,10.2963664 C183.209452,9.91928965 182.975404,9.10012292 182.975404,7.57881328 L182.975404,4.60120723 L181.519108,4.60120723 L181.519108,3.15791347 L182.182243,3.15791347 C182.429293,3.15791347 182.598328,3.13190818 182.715352,3.07989759 C182.962402,2.96287377 183.040418,2.67681555 183.079426,2.06569117 C183.092428,1.740625 183.105431,1.29853502 183.105431,1.07749003 L184.561727,1.07749003 L184.561727,3.09290024 L186.53813,3.09290024 L186.53813,4.60120723 L184.561727,4.60120723 L184.561727,7.29275505 C184.561727,7.78685562 184.600735,8.15092972 184.665749,8.39798001 C184.782772,8.89208057 185.172852,8.9830991 186.005021,8.9830991 L186.53813,8.9830991 L186.53813,10.569422 Z M187.628245,13.364991 L187.628245,11.8826893 L188.499422,11.8826893 C188.824488,11.8826893 189.097544,11.8436813 189.292584,11.7916707 C189.695666,11.6746469 189.916711,11.3755861 190.215772,10.7254537 L190.358801,10.3743823 L187.264171,3.09290024 L189.084541,3.09290024 L191.112954,8.15092972 L191.177967,8.48899853 L191.268986,8.16393237 L193.245388,3.09290024 L195.039754,3.09290024 L191.763087,10.9985093 C191.333999,12.038721 190.99593,12.6368428 190.55384,12.9619089 C190.098748,13.2869751 189.500626,13.364991 188.48642,13.364991 L187.628245,13.364991 Z M201.835924,7.64382651 L201.835924,10.569422 L200.158582,10.569422 L200.158582,1.29853502 L203.656294,1.29853502 C204.488464,1.29853502 205.164601,1.42856149 205.710712,1.70161707 C206.802935,2.22172292 207.336043,3.19692141 207.336043,4.44517547 C207.336043,6.39557245 206.178808,7.65682916 203.721308,7.64382651 L201.835924,7.64382651 Z M201.835924,2.75483143 L201.835924,6.1875301 L203.695302,6.1875301 C204.930554,6.1875301 205.632697,5.57640572 205.632697,4.44517547 C205.632697,3.43096905 204.995567,2.75483143 203.656294,2.75483143 L201.835924,2.75483143 Z M208.686212,10.569422 L208.686212,3.09290024 L210.064492,3.09290024 L210.285537,4.84825752 C210.584598,3.6130061 211.351754,3.02788701 212.769043,3.02788701 L213.276146,3.02788701 L213.276146,4.75723899 L212.534995,4.75723899 C211.936873,4.75723899 211.494783,4.83525487 211.18272,4.99128663 C210.558593,5.2903475 210.363553,5.94047982 210.363553,7.110718 L210.363553,10.569422 L208.686212,10.569422 Z M217.720944,10.7644617 C215.302452,10.7644617 213.950176,9.42518908 213.950176,6.98069154 L213.950176,6.78565184 C213.950176,5.95348247 214.119211,5.23833691 214.444277,4.66622046 C215.094409,3.52198757 216.251645,2.91086319 217.720944,2.91086319 C218.475097,2.91086319 219.112227,3.0538923 219.671341,3.36595582 C220.815574,3.9770802 221.491711,5.13431574 221.491711,6.78565184 L221.491711,6.98069154 C221.491711,7.79985827 221.33568,8.47599589 221.023616,9.03510968 C220.373484,10.1663399 219.242254,10.7644617 217.720944,10.7644617 Z M217.720944,9.26915732 C219.008206,9.26915732 219.762359,8.43698795 219.762359,6.95468625 L219.762359,6.78565184 C219.762359,5.25133956 218.969198,4.3671596 217.733947,4.3671596 C216.511698,4.3671596 215.692531,5.19932897 215.692531,6.78565184 L215.692531,6.95468625 C215.692531,8.43698795 216.446685,9.26915732 217.720944,9.26915732 Z M223.817078,2.28673616 C222.997912,2.28673616 222.685848,2.01368058 222.685848,1.15550591 C222.685848,0.323336538 223.062925,0.0372783152 223.817078,0.0372783152 C224.571232,0.0372783152 224.948309,0.323336538 224.948309,1.15550591 C224.948309,1.96167 224.584234,2.28673616 223.817078,2.28673616 Z M221.411589,13.6380465 L221.411589,12.0517237 L221.788665,12.0517237 C222.113732,12.0517237 222.373785,12.0257184 222.542819,11.9737078 C222.89389,11.856684 222.971906,11.5316178 222.971906,10.7124511 L222.971906,3.09290024 L224.636245,3.09290024 L224.636245,10.9204934 C224.636245,12.0127157 224.519221,12.701856 224.116139,13.104938 C223.739062,13.4820148 223.049922,13.6380465 221.9577,13.6380465 L221.411589,13.6380465 Z M233.358914,8.35897207 C232.929827,9.88028171 231.72058,10.7644617 229.757181,10.7644617 C227.234667,10.7644617 225.999416,9.30816526 225.999416,6.99369419 L225.999416,6.81165713 C225.999416,6.00549305 226.155448,5.34235808 226.467511,4.74423634 C227.091638,3.57399816 228.235871,2.91086319 229.809191,2.91086319 C231.096453,2.91086319 232.006639,3.35295317 232.60476,4.06809873 C233.202882,4.78324428 233.462935,5.70643218 233.462935,6.66862802 L233.462935,7.46178946 L227.68976,7.46178946 C227.832789,8.68403823 228.586943,9.36017585 229.822194,9.36017585 C230.732379,9.36017585 231.265488,9.00910439 231.525541,8.35897207 L233.358914,8.35897207 Z M229.822194,4.26313842 C228.638953,4.26313842 227.897802,4.93927604 227.702763,6.12251687 L231.759588,6.12251687 C231.642565,4.97828398 231.018438,4.26313842 229.822194,4.26313842 Z M238.414836,10.7644617 C236.02235,10.7644617 234.657072,9.42518908 234.657072,6.98069154 L234.657072,6.78565184 C234.657072,5.95348247 234.826106,5.23833691 235.151172,4.66622046 C235.814307,3.52198757 236.984545,2.91086319 238.427839,2.91086319 C240.49526,2.91086319 241.912548,3.88606168 242.081583,6.07050629 L242.081583,6.09651158 L240.30022,6.09651158 L240.30022,6.05750364 C240.144188,4.88726545 239.481053,4.3671596 238.440842,4.3671596 C237.244598,4.3671596 236.425432,5.19932897 236.425432,6.78565184 L236.425432,6.95468625 C236.425432,8.43698795 237.179585,9.26915732 238.427839,9.26915732 C239.520061,9.26915732 240.144188,8.69704088 240.313223,7.55280798 L240.313223,7.53980534 L242.094585,7.53980534 L242.094585,7.57881328 C241.925551,9.78926318 240.482257,10.7644617 238.414836,10.7644617 Z M247.74863,10.569422 L246.786434,10.569422 C246.084291,10.569422 245.53818,10.4654008 245.174106,10.2963664 C244.419952,9.91928965 244.185905,9.10012292 244.185905,7.57881328 L244.185905,4.60120723 L242.729608,4.60120723 L242.729608,3.15791347 L243.392743,3.15791347 C243.639793,3.15791347 243.808828,3.13190818 243.925852,3.07989759 C244.172902,2.96287377 244.250918,2.67681555 244.289926,2.06569117 C244.302928,1.740625 244.315931,1.29853502 244.315931,1.07749003 L245.772227,1.07749003 L245.772227,3.09290024 L247.74863,3.09290024 L247.74863,4.60120723 L245.772227,4.60120723 L245.772227,7.29275505 C245.772227,7.78685562 245.811235,8.15092972 245.876249,8.39798001 C245.993272,8.89208057 246.383352,8.9830991 247.215521,8.9830991 L247.74863,8.9830991 L247.74863,10.569422 Z M6.40012735,24.8386615 C5.89302413,25.81386 4.89182035,26.5290056 3.34450542,26.5290056 C1.71917461,26.5290056 0.900007881,25.7488468 0.900007881,24.526598 C0.900007881,23.6944287 1.26408198,23.0703016 1.87520637,22.6932249 C2.08324871,22.5501958 2.3042937,22.4461746 2.51233605,22.3811614 C2.95442603,22.2251296 3.51353983,22.1211084 4.44973037,21.9780793 C5.78900296,21.8090449 6.32211147,21.6270079 6.32211147,21.0158835 C6.32211147,20.3917564 5.91902943,20.0016771 4.74879124,20.0016771 C3.51353983,20.0016771 2.95442603,20.5347856 2.90241544,21.4969814 L1.14705816,21.4969814 C1.26408198,19.7936347 2.51233605,18.6754071 4.65777272,18.6754071 C5.47693944,18.6754071 6.10106648,18.7794283 6.59516704,19.0004733 C7.57036553,19.416558 7.96044492,20.2097194 7.96044492,21.2889391 L7.96044492,26.3339659 L6.5821644,26.3339659 L6.40012735,24.8386615 Z M3.92962451,25.2157383 C4.42372508,25.2157383 4.83980977,25.0987145 5.20388387,24.8776695 C5.93203207,24.4225769 6.33511411,23.6684234 6.33511411,22.9532778 L6.33511411,22.5501958 C6.0230506,22.7712408 5.50294474,22.9272725 4.82680712,23.0312937 C3.91662187,23.1743228 3.55254776,23.278344 3.20147631,23.499389 C2.90241544,23.6944287 2.75938633,23.9544816 2.75938633,24.2795477 C2.75938633,24.9036748 3.14946572,25.2157383 3.92962451,25.2157383 Z M13.8875448,26.3339659 L12.925349,26.3339659 C12.2232061,26.3339659 11.6770949,26.2299447 11.3130208,26.0609103 C10.5588673,25.6838336 10.3248197,24.8646668 10.3248197,23.3433572 L10.3248197,20.3657512 L8.86852327,20.3657512 L8.86852327,18.9224574 L9.53165824,18.9224574 C9.77870852,18.9224574 9.94774293,18.8964521 10.0647667,18.8444415 C10.311817,18.7274177 10.3898329,18.4413595 10.4288408,17.8302351 C10.4418435,17.5051689 10.4548461,17.0630789 10.4548461,16.842034 L11.9111425,16.842034 L11.9111425,18.8574442 L13.8875448,18.8574442 L13.8875448,20.3657512 L11.9111425,20.3657512 L11.9111425,23.057299 C11.9111425,23.5513995 11.9501505,23.9154736 12.0151637,24.1625239 C12.1321875,24.6566245 12.5222669,24.747643 13.3544363,24.747643 L13.8875448,24.747643 L13.8875448,26.3339659 Z M22.6341121,26.5290056 C21.6979215,26.5290056 20.9567707,26.3989791 20.3846542,26.1259235 C19.253424,25.6058177 18.7853287,24.5916113 18.7333181,23.1223122 L20.5536886,23.1223122 C20.5926966,24.4095742 21.2168236,25.0337012 22.6601174,25.0337012 C23.8953688,25.0337012 24.4544826,24.4225769 24.4544826,23.6684234 C24.4544826,23.3433572 24.3504614,23.0703016 24.1294164,22.9012672 C23.6743238,22.5501958 22.9201703,22.394164 22.1010036,22.2381322 C21.3728554,22.0821005 20.6317045,21.9000634 20.0335828,21.5359893 C19.435461,21.1589126 19.0583843,20.5607909 19.0583843,19.5465844 C19.0583843,19.0784892 19.1884108,18.6363992 19.4094557,18.2333171 C19.9035563,17.427153 20.8657522,16.8940445 22.3610565,16.8940445 C24.8185567,16.8940445 25.8977763,18.0252748 25.9627896,19.8846532 L24.1944297,19.8846532 C24.1294164,18.8184362 23.6223132,18.3243357 22.3350512,18.3243357 C21.203821,18.3243357 20.7747336,18.8704468 20.7747336,19.5205791 C20.7747336,19.8326426 20.8787548,20.0796929 21.0867971,20.2357247 C21.5288871,20.5607909 22.2440327,20.70382 23.0501968,20.8728544 C23.8173529,21.0288861 24.5715064,21.2239258 25.1696281,21.6010026 C25.7677499,21.9780793 26.1578293,22.6022063 26.1578293,23.6294154 C26.1578293,24.1495213 26.0278028,24.6306192 25.7677499,25.0857118 C25.2216387,25.9568891 24.181427,26.5290056 22.6341121,26.5290056 Z M31.9419001,26.3339659 L30.9797042,26.3339659 C30.2775613,26.3339659 29.7314501,26.2299447 29.367376,26.0609103 C28.6132226,25.6838336 28.3791749,24.8646668 28.3791749,23.3433572 L28.3791749,20.3657512 L26.9228785,20.3657512 L26.9228785,18.9224574 L27.5860135,18.9224574 C27.8330638,18.9224574 28.0020982,18.8964521 28.119122,18.8444415 C28.3661723,18.7274177 28.4441881,18.4413595 28.4831961,17.8302351 C28.4961987,17.5051689 28.5092014,17.0630789 28.5092014,16.842034 L29.9654978,16.842034 L29.9654978,18.8574442 L31.9419001,18.8574442 L31.9419001,20.3657512 L29.9654978,20.3657512 L29.9654978,23.057299 C29.9654978,23.5513995 30.0045057,23.9154736 30.069519,24.1625239 C30.1865428,24.6566245 30.5766222,24.747643 31.4087915,24.747643 L31.9419001,24.747643 L31.9419001,26.3339659 Z M38.4021084,24.8386615 C37.8950052,25.81386 36.8938015,26.5290056 35.3464865,26.5290056 C33.7211557,26.5290056 32.901989,25.7488468 32.901989,24.526598 C32.901989,23.6944287 33.2660631,23.0703016 33.8771875,22.6932249 C34.0852298,22.5501958 34.3062748,22.4461746 34.5143171,22.3811614 C34.9564071,22.2251296 35.5155209,22.1211084 36.4517115,21.9780793 C37.7909841,21.8090449 38.3240926,21.6270079 38.3240926,21.0158835 C38.3240926,20.3917564 37.9210105,20.0016771 36.7507723,20.0016771 C35.5155209,20.0016771 34.9564071,20.5347856 34.9043965,21.4969814 L33.1490393,21.4969814 C33.2660631,19.7936347 34.5143171,18.6754071 36.6597538,18.6754071 C37.4789205,18.6754071 38.1030476,18.7794283 38.5971481,19.0004733 C39.5723466,19.416558 39.962426,20.2097194 39.962426,21.2889391 L39.962426,26.3339659 L38.5841455,26.3339659 L38.4021084,24.8386615 Z M35.9316056,25.2157383 C36.4257062,25.2157383 36.8417909,25.0987145 37.205865,24.8776695 C37.9340132,24.4225769 38.3370952,23.6684234 38.3370952,22.9532778 L38.3370952,22.5501958 C38.0250317,22.7712408 37.5049258,22.9272725 36.8287882,23.0312937 C35.918603,23.1743228 35.5545289,23.278344 35.2034574,23.499389 C34.9043965,23.6944287 34.7613674,23.9544816 34.7613674,24.2795477 C34.7613674,24.9036748 35.1514468,25.2157383 35.9316056,25.2157383 Z M43.3800151,26.3339659 L41.6636658,26.3339659 L41.6636658,18.8574442 L43.1069596,18.8574442 L43.2629913,20.3527485 C43.6660734,19.3255394 44.5112454,18.6754071 45.7985074,18.6754071 C47.6058752,18.6754071 48.5680711,19.8716506 48.5680711,21.731029 L48.5680711,26.3339659 L46.8517218,26.3339659 L46.8517218,22.1471137 C46.8517218,20.924865 46.4616424,20.1577088 45.2393936,20.1577088 C43.9651342,20.1577088 43.3800151,21.0418888 43.3800151,22.4331719 L43.3800151,26.3339659 Z M52.362737,20.3397459 L52.3497343,26.3339659 L50.7244035,26.3339659 L50.7244035,20.3397459 L49.4111362,20.3397459 L49.4111362,18.8574442 L50.7244035,18.8574442 L50.7244035,18.5583833 C50.7244035,16.6469943 51.4655543,15.9318487 53.2469169,15.9318487 L54.1310969,15.9318487 L54.1310969,17.3361345 L53.4809646,17.3361345 C53.168901,17.3361345 52.9218508,17.3751425 52.765819,17.4401557 C52.4407528,17.5831848 52.362737,17.9472589 52.362737,18.7664256 L52.362737,18.8574442 L54.1180942,18.8574442 L54.1180942,20.3397459 L52.362737,20.3397459 Z M58.432866,26.5290056 C56.0143737,26.5290056 54.6620985,25.189733 54.6620985,22.7452355 L54.6620985,22.5501958 C54.6620985,21.7180264 54.8311329,21.0028808 55.156199,20.4307644 C55.8063314,19.2865315 56.9635669,18.6754071 58.432866,18.6754071 C59.1870194,18.6754071 59.8241491,18.8184362 60.3832629,19.1304997 C61.5274958,19.7416241 62.2036334,20.8988597 62.2036334,22.5501958 L62.2036334,22.7452355 C62.2036334,23.5644022 62.0476017,24.2405398 61.7355382,24.7996536 C61.0854058,25.9308838 59.9541756,26.5290056 58.432866,26.5290056 Z M58.432866,25.0337012 C59.720128,25.0337012 60.4742815,24.2015319 60.4742815,22.7192302 L60.4742815,22.5501958 C60.4742815,21.0158835 59.68112,20.1317035 58.4458686,20.1317035 C57.2236198,20.1317035 56.4044531,20.9638729 56.4044531,22.5501958 L56.4044531,22.7192302 C56.4044531,24.2015319 57.1586066,25.0337012 58.432866,25.0337012 Z M63.6318176,26.3339659 L63.6318176,18.8574442 L65.0100982,18.8574442 L65.2311432,20.6128014 C65.530204,19.37755 66.2973602,18.7924309 67.7146486,18.7924309 L68.2217518,18.7924309 L68.2217518,20.5217829 L67.480601,20.5217829 C66.8824793,20.5217829 66.4403893,20.5997988 66.1283258,20.7558305 C65.5041987,21.0548914 65.309159,21.7050237 65.309159,22.8752619 L65.309159,26.3339659 L63.6318176,26.3339659 Z M74.6559549,24.7736483 C74.2528729,25.7878547 73.4077009,26.4899976 72.0684283,26.4899976 C70.1570393,26.4899976 68.8957826,25.1507251 68.8957826,22.6282116 L68.8957826,22.4461746 C68.8957826,21.6270079 69.0388117,20.9378676 69.3118672,20.3787538 C69.8579784,19.2605262 70.8461795,18.6884098 72.1204389,18.6884098 C73.3556903,18.6884098 74.174857,19.2215183 74.6039444,20.1447062 L74.6039444,16.3219281 L76.2552805,16.3219281 L76.2552805,26.3339659 L74.837992,26.3339659 L74.6559549,24.7736483 Z M72.5885342,25.0206986 C73.8627935,25.0206986 74.6429523,24.0975107 74.6429523,22.615209 L74.6429523,22.4851825 C74.6429523,21.0418888 73.8887988,20.1056982 72.6535474,20.1056982 C71.3662854,20.1056982 70.6511398,20.9768755 70.6511398,22.4721799 L70.6511398,22.615209 C70.6511398,24.2145345 71.4573039,25.0206986 72.5885342,25.0206986 Z M85.7950092,26.5290056 C83.3245063,26.5290056 82.1672708,25.2287409 82.1672708,22.3161481 L82.1672708,17.0630789 L83.9356307,17.0630789 L83.9356307,22.2511349 C83.9356307,24.0975107 84.4817419,24.8776695 85.8080118,24.8776695 C87.1342818,24.8776695 87.6283823,24.1105133 87.6283823,22.2511349 L87.6283823,17.0630789 L89.4097449,17.0630789 L89.4097449,22.3161481 C89.4097449,25.2287409 88.1614908,26.5290056 85.7950092,26.5290056 Z M92.7623208,26.3339659 L91.0459714,26.3339659 L91.0459714,18.8574442 L92.4892652,18.8574442 L92.645297,20.3527485 C93.048379,19.3255394 93.893551,18.6754071 95.180813,18.6754071 C96.9881809,18.6754071 97.9503767,19.8716506 97.9503767,21.731029 L97.9503767,26.3339659 L96.2340274,26.3339659 L96.2340274,22.1471137 C96.2340274,20.924865 95.843948,20.1577088 94.6216992,20.1577088 C93.3474399,20.1577088 92.7623208,21.0418888 92.7623208,22.4331719 L92.7623208,26.3339659 Z M100.483786,18.0512801 C99.6646191,18.0512801 99.3525556,17.7782245 99.3525556,16.9200498 C99.3525556,16.0878805 99.7296324,15.8018222 100.483786,15.8018222 C101.237939,15.8018222 101.615016,16.0878805 101.615016,16.9200498 C101.615016,17.7262139 101.250942,18.0512801 100.483786,18.0512801 Z M99.5996059,26.3339659 L99.5996059,18.8574442 L101.328958,18.8574442 L101.328958,26.3339659 L99.5996059,26.3339659 Z M105.25365,26.3339659 L102.315052,18.8574442 L104.096415,18.8574442 L106.033809,24.2145345 L108.049219,18.8574442 L109.843584,18.8574442 L106.77496,26.3339659 L105.25365,26.3339659 Z M117.513039,24.123516 C117.083952,25.6448256 115.874705,26.5290056 113.911306,26.5290056 C111.388792,26.5290056 110.153541,25.0727092 110.153541,22.7582381 L110.153541,22.5762011 C110.153541,21.770037 110.309573,21.106902 110.621636,20.5087803 C111.245763,19.3385421 112.389996,18.6754071 113.963316,18.6754071 C115.250578,18.6754071 116.160764,19.1174971 116.758885,19.8326426 C117.357007,20.5477882 117.61706,21.4709761 117.61706,22.4331719 L117.61706,23.2263334 L111.843885,23.2263334 C111.986914,24.4485821 112.741068,25.1247198 113.976319,25.1247198 C114.886504,25.1247198 115.419613,24.7736483 115.679666,24.123516 L117.513039,24.123516 Z M113.976319,20.0276823 C112.793078,20.0276823 112.051927,20.70382 111.856888,21.8870608 L115.913713,21.8870608 C115.79669,20.7428279 115.172563,20.0276823 113.976319,20.0276823 Z M119.006236,26.3339659 L119.006236,18.8574442 L120.384517,18.8574442 L120.605562,20.6128014 C120.904623,19.37755 121.671779,18.7924309 123.089067,18.7924309 L123.596171,18.7924309 L123.596171,20.5217829 L122.85502,20.5217829 C122.256898,20.5217829 121.814808,20.5997988 121.502745,20.7558305 C120.878617,21.0548914 120.683578,21.7050237 120.683578,22.8752619 L120.683578,26.3339659 L119.006236,26.3339659 Z M127.858932,26.5290056 C125.557463,26.5290056 124.439236,25.6058177 124.218191,23.8634631 L126.064567,23.8634631 C126.220598,24.747643 126.831723,25.0987145 127.89794,25.0987145 C128.990162,25.0987145 129.419249,24.7346404 129.419249,24.1365186 C129.419249,23.9154736 129.328231,23.7334366 129.133191,23.6164128 C128.756114,23.3953678 128.105982,23.3043493 127.390836,23.2003281 C126.714699,23.0963069 126.025559,22.9792831 125.466445,22.6802222 C124.907331,22.3811614 124.55626,21.8740581 124.55626,21.0418888 C124.55626,19.6636082 125.583469,18.6754071 127.637887,18.6754071 C129.783323,18.6754071 130.758522,19.598595 130.966564,21.0938994 L129.22421,21.0938994 C129.107186,20.3657512 128.613085,20.040685 127.624884,20.040685 C126.558667,20.040685 126.233601,20.4177617 126.233601,20.9378676 C126.233601,21.1589126 126.324619,21.3409496 126.519659,21.4579735 C126.896736,21.6790184 127.559871,21.770037 128.275016,21.8740581 C128.951154,21.9780793 129.640294,22.0951031 130.199408,22.394164 C130.758522,22.6932249 131.109593,23.2003281 131.109593,24.0324975 C131.109593,25.4757912 130.069382,26.5290056 127.858932,26.5290056 Z M133.330939,18.0512801 C132.511772,18.0512801 132.199709,17.7782245 132.199709,16.9200498 C132.199709,16.0878805 132.576786,15.8018222 133.330939,15.8018222 C134.085092,15.8018222 134.462169,16.0878805 134.462169,16.9200498 C134.462169,17.7262139 134.098095,18.0512801 133.330939,18.0512801 Z M132.446759,26.3339659 L132.446759,18.8574442 L134.176111,18.8574442 L134.176111,26.3339659 L132.446759,26.3339659 Z M140.428277,26.3339659 L139.466081,26.3339659 C138.763938,26.3339659 138.217827,26.2299447 137.853753,26.0609103 C137.0996,25.6838336 136.865552,24.8646668 136.865552,23.3433572 L136.865552,20.3657512 L135.409256,20.3657512 L135.409256,18.9224574 L136.07239,18.9224574 C136.319441,18.9224574 136.488475,18.8964521 136.605499,18.8444415 C136.852549,18.7274177 136.930565,18.4413595 136.969573,17.8302351 C136.982576,17.5051689 136.995578,17.0630789 136.995578,16.842034 L138.451875,16.842034 L138.451875,18.8574442 L140.428277,18.8574442 L140.428277,20.3657512 L138.451875,20.3657512 L138.451875,23.057299 C138.451875,23.5513995 138.490883,23.9154736 138.555896,24.1625239 C138.67292,24.6566245 139.062999,24.747643 139.895169,24.747643 L140.428277,24.747643 L140.428277,26.3339659 Z M141.518392,29.1295349 L141.518392,27.6472332 L142.38957,27.6472332 C142.714636,27.6472332 142.987692,27.6082252 143.182731,27.5562147 C143.585813,27.4391908 143.806858,27.14013 144.105919,26.4899976 L144.248948,26.1389262 L141.154318,18.8574442 L142.974689,18.8574442 L145.003102,23.9154736 L145.068115,24.2535425 L145.159133,23.9284763 L147.135536,18.8574442 L148.929901,18.8574442 L145.653234,26.7630532 C145.224147,27.8032649 144.886078,28.4013867 144.443988,28.7264528 C143.988895,29.051519 143.390774,29.1295349 142.376567,29.1295349 L141.518392,29.1295349 Z" id="TheEducationalOpportunityProjectatStanfordUniversity"></path>
                </g>
                <g id="Group" transform="translate(0.000000, 1.049244)">
                    <path d="M-10.52,12.952961 L13.48,12.967039" id="Line-Copy-Copy" stroke="url(#linearGradient-1)" stroke-width="1.56" stroke-linecap="round" stroke-linejoin="round" transform="translate(1.480000, 12.960000) rotate(-90.000000) translate(-1.480000, -12.960000) "></path>
                    <path d="M1.4770086,25.4099759 L25.4770086,25.4700241" id="Line-Copy-2-Copy" stroke="url(#linearGradient-2)" stroke-width="1.56" stroke-linecap="round" stroke-linejoin="round"></path>
                    <path d="M11.8537341,15.3007226 C11.9957387,16.2172186 11.378253,17.0787685 10.4745413,17.2250482 C9.57082958,17.3713278 8.72310901,16.7469441 8.58110443,15.830448 C8.43909985,14.913952 9.05658551,14.0524021 9.96029724,13.9061225 C10.864009,13.7598429 11.7117295,14.3842266 11.8537341,15.3007226 Z M9.34551465,21.3742389 C9.38521672,21.6272296 9.21747673,21.8642731 8.97085689,21.9036902 C8.72423709,21.9431075 8.4921273,21.7699716 8.45242522,21.5169809 C8.41272315,21.2639901 8.58046312,21.0269467 8.82708294,20.9875294 C9.07370278,20.9481123 9.30581254,21.121248 9.34551465,21.3742389 Z M4.7789063,19.7364157 C4.81860838,19.9894065 4.65086839,20.22645 4.40424858,20.2658671 C4.15762874,20.3052843 3.92551897,20.1321486 3.88581689,19.8791577 C3.84611481,19.6261669 4.01385479,19.3891235 4.26047463,19.3497063 C4.50709444,19.3102892 4.73920423,19.4834249 4.7789063,19.7364157 Z M11.8822486,19.581384 C11.9898544,20.2756904 11.5222183,20.9283283 10.8377543,21.0390914 C10.1532903,21.1498546 9.51119096,20.6767995 9.40358521,19.982493 C9.29597946,19.2881865 9.76361546,18.6355486 10.4480795,18.5247855 C11.1325435,18.4140223 11.7746429,18.8870775 11.8822486,19.581384 Z M4.6911008,14.3336244 C4.6911008,14.3336244 4.6911008,14.3336244 4.6911008,14.3336244 C4.6911008,14.3336244 4.6911008,14.3336244 4.6911008,14.3336244 C4.6911008,14.3336244 4.6911008,14.3336244 4.6911008,14.3336244 C4.6911008,14.3336244 4.6911008,14.3336244 4.6911008,14.3336244 Z M13.487916,17.505972 C13.5540861,17.9276234 13.2745195,18.3226959 12.8634865,18.3883911 C12.4524534,18.4540863 12.0656038,18.1655268 11.9994337,17.7438754 C11.9332635,17.3222241 12.2128301,16.9271516 12.6238632,16.8614564 C13.0348963,16.7957612 13.4217459,17.0843207 13.487916,17.505972 Z M12.0419375,7.39617598 C12.0816396,7.6491668 11.9138996,7.88621026 11.6672798,7.92562739 C11.4206599,7.96504451 11.1885502,7.79190883 11.1488481,7.53891801 C11.109146,7.28592719 11.276886,7.0488837 11.5235058,7.00946658 C11.7701256,6.97004946 12.0022354,7.14318516 12.0419375,7.39617598 Z M23.0931269,2.22485046 C23.0931269,2.22485046 23.0931269,2.22485046 23.0931269,2.22485046 C23.0931269,2.22485046 23.0931269,2.22485046 23.0931269,2.22485046 C23.0931269,2.22485046 23.0931269,2.22485046 23.0931269,2.22485046 C23.0931269,2.22485046 23.0931269,2.22485046 23.0931269,2.22485046 Z M10.3975509,10.4698103 C10.3975509,10.4698103 10.3975509,10.4698103 10.3975509,10.4698103 C10.3975509,10.4698103 10.3975509,10.4698103 10.3975509,10.4698103 C10.3975509,10.4698103 10.3975509,10.4698103 10.3975509,10.4698103 C10.3975509,10.4698103 10.3975509,10.4698103 10.3975509,10.4698103 Z M9.36135745,9.87269548 C9.40105953,10.1256863 9.23331956,10.3627298 8.98669973,10.4021469 C8.7400799,10.441564 8.50797013,10.2684283 8.46826806,10.0154375 C8.42856598,9.76244666 8.59630595,9.5254032 8.84292578,9.48598608 C9.08954561,9.44656895 9.32165538,9.61970465 9.36135745,9.87269548 Z M16.4353243,10.6611497 C16.5660897,11.5049712 15.9976826,12.2981706 15.1657516,12.4328103 C14.3338206,12.5674499 13.5534009,11.9925444 13.4226356,11.148723 C13.2918702,10.3049015 13.8602772,9.51170207 14.6922082,9.37706242 C15.5241393,9.2424228 16.3045589,9.81732824 16.4353243,10.6611497 Z M9.30861397,17.8203834 C9.41022957,18.4696714 8.97822597,19.0784672 8.3437069,19.180167 C7.70918784,19.2818668 7.11243277,18.8379588 7.01081715,18.1886708 C6.90920153,17.5393829 7.34120513,16.930587 7.97572422,16.8288873 C8.61024329,16.7271875 9.20699835,17.1710954 9.30861397,17.8203834 Z M6.56232059,23.4649557 C6.60202266,23.7179464 6.43428267,23.9549899 6.18766285,23.994407 C5.94104303,24.0338243 5.70893323,23.8606884 5.66923116,23.6076977 C5.62952909,23.3547069 5.79726908,23.1176635 6.04388888,23.0782462 C6.29050872,23.0388291 6.5226185,23.2119648 6.56232059,23.4649557 Z M17.9121228,9.88215766 C17.9518249,10.1351485 17.7840849,10.372192 17.5374651,10.4116091 C17.2908452,10.4510262 17.0587355,10.2778905 17.0190334,10.0248997 C16.9793313,9.77190887 17.1470713,9.53486541 17.3936911,9.49544829 C17.640311,9.45603116 17.8724207,9.62916684 17.9121228,9.88215766 Z M13.0017885,19.6239858 C13.0017885,19.6239858 13.0017885,19.6239858 13.0017885,19.6239858 C13.0017885,19.6239858 13.0017885,19.6239858 13.0017885,19.6239858 C13.0017885,19.6239858 13.0017885,19.6239858 13.0017885,19.6239858 C13.0017885,19.6239858 13.0017885,19.6239858 13.0017885,19.6239858 Z M11.3712757,22.7715259 C11.3712757,22.7715259 11.3712757,22.7715259 11.3712757,22.7715259 C11.3712757,22.7715259 11.3712757,22.7715259 11.3712757,22.7715259 C11.3712757,22.7715259 11.3712757,22.7715259 11.3712757,22.7715259 C11.3712757,22.7715259 11.3712757,22.7715259 11.3712757,22.7715259 Z M21.1662761,7.79555004 C21.1662761,7.79555004 21.1662761,7.79555004 21.1662761,7.79555004 C21.1662761,7.79555004 21.1662761,7.79555004 21.1662761,7.79555004 C21.1662761,7.79555004 21.1662761,7.79555004 21.1662761,7.79555004 C21.1662761,7.79555004 21.1662761,7.79555004 21.1662761,7.79555004 Z M14.7664291,6.59557531 C14.8333842,7.02222879 14.550501,7.42198804 14.1345918,7.48846258 C13.7186827,7.55493713 13.3272438,7.26295444 13.2602887,6.83630097 C13.1933336,6.40964749 13.4762167,6.00988825 13.8921259,5.9434137 C14.3080351,5.87693915 14.699474,6.16892185 14.7664291,6.59557531 Z M13.1808017,9.96026043 C13.2477568,10.3869139 12.9648737,10.7866732 12.5489645,10.8531477 C12.1330553,10.9196223 11.7416164,10.6276396 11.6746613,10.2009861 C11.6077062,9.77433261 11.8905894,9.37457337 12.3064985,9.30809882 C12.7224077,9.24162427 13.1138466,9.53360697 13.1808017,9.96026043 Z M17.1875027,18.8970076 C17.2272048,19.1499984 17.0594648,19.3870419 16.8128449,19.4264591 C16.5662251,19.4658762 16.3341153,19.2927405 16.2944133,19.0397497 C16.2547112,18.7867588 16.4224512,18.5497154 16.669071,18.5102983 C16.9156908,18.4708811 17.1478006,18.6440168 17.1875027,18.8970076 Z M21.5466974,1.92190182 C21.6128675,2.34355318 21.3333009,2.73862565 20.9222678,2.80432085 C20.5112348,2.87001605 20.1243852,2.58145656 20.058215,2.1598052 C19.9920449,1.73815384 20.2716115,1.34308137 20.6826446,1.27738617 C21.0936776,1.21169097 21.4805272,1.50025046 21.5466974,1.92190182 Z M17.3907067,3.17621977 C17.4304088,3.42921059 17.2626688,3.66625406 17.016049,3.70567118 C16.7694291,3.7450883 16.5373194,3.57195263 16.4976173,3.31896181 C16.4579152,3.06597098 16.6256552,2.8289275 16.872275,2.78951037 C17.1188948,2.75009325 17.3510046,2.92322895 17.3907067,3.17621977 Z M14.906114,14.2222321 C15.0119862,14.8968743 14.5646796,15.5289902 13.9070267,15.6341025 C13.2493739,15.7392149 12.6304145,15.2775197 12.5245423,14.6028775 C12.41867,13.9282353 12.8659767,13.2961194 13.5236295,13.191007 C14.1812824,13.0858947 14.8002418,13.5475899 14.906114,14.2222321 Z M19.7485087,10.3750391 C19.8146788,10.7966904 19.5351122,11.1917629 19.1240791,11.2574581 C18.7130461,11.3231533 18.3261965,11.0345938 18.2600263,10.6129425 C18.1938562,10.1912911 18.4734228,9.79621864 18.8844559,9.73052344 C19.2954889,9.66482824 19.6823386,9.95338773 19.7485087,10.3750391 Z M17.3262934,15.9003766 C17.4056976,16.4063582 17.0702176,16.8804452 16.5769779,16.9592794 C16.0837383,17.0381137 15.6195187,16.6918423 15.5401146,16.1858607 C15.4607104,15.679879 15.7961904,15.2057921 16.28943,15.1269578 C16.7826697,15.0481236 17.2468892,15.394395 17.3262934,15.9003766 Z M7.9799819,15.0425059 C8.05824062,15.5474561 7.71814171,16.0221018 7.22034971,16.1026569 C6.72255771,16.1832119 6.25557632,15.8391717 6.1773176,15.3342216 C6.09905888,14.8292715 6.43915779,14.3546257 6.93694979,14.2740707 C7.43474179,14.1935156 7.90172317,14.5375558 7.9799819,15.0425059 Z M8.0267998,20.3520412 C8.11483779,20.9201106 7.73222367,21.4540851 7.17220721,21.5447063 C6.61219076,21.6353278 6.08683883,21.2482796 5.99880082,20.6802103 C5.91076283,20.1121409 6.29337697,19.5781665 6.85339343,19.4875451 C7.41340986,19.3969237 7.9387618,19.7839718 8.0267998,20.3520412 Z M8.69874687,13.2152401 C8.69874687,13.2152401 8.69874687,13.2152401 8.69874687,13.2152401 C8.69874687,13.2152401 8.69874687,13.2152401 8.69874687,13.2152401 C8.69874687,13.2152401 8.69874687,13.2152401 8.69874687,13.2152401 C8.69874687,13.2152401 8.69874687,13.2152401 8.69874687,13.2152401 Z M5.29493392,16.7190389 C5.334636,16.9720297 5.16689603,17.2090732 4.9202762,17.2484903 C4.67365636,17.2879074 4.4415466,17.1147718 4.40184453,16.8617809 C4.36214245,16.6087901 4.52988241,16.3717466 4.77650225,16.3323295 C5.02312209,16.2929124 5.25523185,16.4660481 5.29493392,16.7190389 Z M21.5177447,11.613396 C21.5177447,11.613396 21.5177447,11.613396 21.5177447,11.613396 C21.5177447,11.613396 21.5177447,11.613396 21.5177447,11.613396 C21.5177447,11.613396 21.5177447,11.613396 21.5177447,11.613396 C21.5177447,11.613396 21.5177447,11.613396 21.5177447,11.613396 Z M23.7384256,0.309115602 C23.7384256,0.309115602 23.7384256,0.309115602 23.7384256,0.309115602 C23.7384256,0.309115602 23.7384256,0.309115602 23.7384256,0.309115602 C23.7384256,0.309115602 23.7384256,0.309115602 23.7384256,0.309115602 C23.7384256,0.309115602 23.7384256,0.309115602 23.7384256,0.309115602 Z M19.1315193,12.6054265 C19.2293427,13.2366142 18.8042191,13.8299214 18.1819791,13.9306152 C17.5597391,14.031309 16.9760123,13.6012587 16.878189,12.9700711 C16.7803655,12.3388834 17.2054892,11.7455763 17.8277292,11.6448825 C18.4499692,11.5441886 19.0336959,11.9742389 19.1315193,12.6054265 Z M22.6753256,5.03944192 C22.6753256,5.03944192 22.6753256,5.03944192 22.6753256,5.03944192 C22.6753256,5.03944192 22.6753256,5.03944192 22.6753256,5.03944192 C22.6753256,5.03944192 22.6753256,5.03944192 22.6753256,5.03944192 C22.6753256,5.03944192 22.6753256,5.03944192 22.6753256,5.03944192 Z M12.5943977,12.1178616 C12.6738019,12.6238433 12.3383219,13.0979302 11.8450822,13.1767645 C11.3518426,13.2555987 10.887623,12.9093273 10.8082189,12.4033457 C10.7288147,11.897364 11.0642947,11.4232771 11.5575343,11.3444428 C12.050774,11.2656086 12.5149935,11.61188 12.5943977,12.1178616 Z M16.9060619,8.04378358 C16.972232,8.46543494 16.6926654,8.86050741 16.2816323,8.92620261 C15.8705993,8.9918978 15.4837497,8.70333832 15.4175796,8.28168696 C15.3514094,7.8600356 15.630976,7.46496313 16.0420091,7.39926793 C16.4530421,7.33357273 16.8398918,7.62213222 16.9060619,8.04378358 Z M18.24619,4.87945365 C18.3123601,5.30110503 18.0327935,5.69617748 17.6217604,5.76187268 C17.2107274,5.8275679 16.8238778,5.53900841 16.7577076,5.11735703 C16.6915375,4.69570567 16.9711041,4.30063322 17.3821372,4.234938 C17.7931702,4.1692428 18.1800198,4.45780229 18.24619,4.87945365 Z M19.6443976,6.97734838 C19.734198,7.55075747 19.3530068,8.08831219 18.792983,8.17801045 C18.2329593,8.2677087 17.7061727,7.87558359 17.6163723,7.30217447 C17.5265718,6.72876538 17.9077631,6.19121067 18.4677868,6.1015124 C19.0278106,6.01181416 19.5545971,6.40393927 19.6443976,6.97734838 Z M21.2453014,5.40296535 C21.3114716,5.82461671 21.031905,6.21968916 20.6208719,6.28538438 C20.2098389,6.35107958 19.8229892,6.06252009 19.7568191,5.64086873 C19.690649,5.21921735 19.9702156,4.8241449 20.3812487,4.7584497 C20.7922817,4.69275448 21.1791313,4.98131397 21.2453014,5.40296535 Z" id="Combined-Shape-Copy" fill="url(#linearGradient-3)" fill-rule="nonzero"></path>
                </g>
            </g>
        </g>
    </g>
</svg>