<?xml version="1.0" encoding="UTF-8"?>
<svg width="283px" height="30px" viewBox="0 0 283 30" version="1.1" xmlns="http://www.w3.org/2000/svg" xmlns:xlink="http://www.w3.org/1999/xlink">
    <defs>
        <linearGradient x1="0%" y1="49.9131945%" x2="77.7265605%" y2="51.3351636%" id="linearGradient-1">
            <stop stop-color="#032664" offset="0%"></stop>
            <stop stop-color="#115992" offset="100%"></stop>
        </linearGradient>
        <linearGradient x1="23.5993168%" y1="100.497361%" x2="80.2211887%" y2="27.1884872%" id="linearGradient-2">
            <stop stop-color="#032664" offset="0%"></stop>
            <stop stop-color="#28B0E1" offset="51.6528179%"></stop>
            <stop stop-color="#2CD2A4" offset="100%"></stop>
        </linearGradient>
    </defs>
    <g id="logo">
        <path d="M39.8185564,2.93727702 L39.8185564,10.699857 L38.0892044,10.699857 L38.0892044,2.93727702 L35.5406857,2.93727702 L35.5406857,1.42897002 L42.4710963,1.42897002 L42.4710963,2.93727702 L39.8185564,2.93727702 Z M45.4595981,10.699857 L43.8212646,10.699857 L43.8212646,0.687819175 L45.4595981,0.687819175 L45.4595981,4.52359989 C45.9146907,3.61341463 46.7598627,3.04129819 47.9431035,3.04129819 C49.7504714,3.04129819 50.647654,4.18553108 50.647654,6.04490953 L50.647654,10.699857 L48.9313047,10.699857 L48.9313047,6.5130048 C48.9313047,5.32976397 48.51522,4.52359989 47.2799686,4.52359989 C46.0837251,4.52359989 45.4595981,5.44678779 45.4595981,6.78606038 L45.4595981,10.699857 Z M59.3833255,8.48940707 C58.9542382,10.0107167 57.7449921,10.8948967 55.7815925,10.8948967 C53.2590791,10.8948967 52.0238276,9.43860026 52.0238276,7.12412919 L52.0238276,6.94209213 C52.0238276,6.13592805 52.1798594,5.47279308 52.4919229,4.87467134 C53.1160499,3.70443316 54.2602828,3.04129819 55.8336031,3.04129819 C57.1208651,3.04129819 58.0310503,3.48338817 58.6291721,4.19853373 C59.2272938,4.91367928 59.4873467,5.83686718 59.4873467,6.79906302 L59.4873467,7.59222446 L53.7141717,7.59222446 C53.8572008,8.81447323 54.6113543,9.49061085 55.8466057,9.49061085 C56.756791,9.49061085 57.2898995,9.13953939 57.5499524,8.48940707 L59.3833255,8.48940707 Z M55.8466057,4.39357342 C54.6633649,4.39357342 53.922214,5.06971104 53.7271743,6.25295187 L57.784,6.25295187 C57.6669762,5.10871898 57.0428492,4.39357342 55.8466057,4.39357342 Z M71.7056206,10.699857 L65.1262815,10.699857 L65.1262815,1.42897002 L71.4845756,1.42897002 L71.4845756,2.89826908 L66.7776176,2.89826908 L66.7776176,5.27775338 L70.76943,5.27775338 L70.76943,6.76005508 L66.7776176,6.76005508 L66.7776176,9.17854733 L71.7056206,9.17854733 L71.7056206,10.699857 Z M78.2438449,9.13953939 C77.8407628,10.1537458 76.9955908,10.8558887 75.6563182,10.8558887 C73.7449292,10.8558887 72.4836725,9.51661614 72.4836725,6.99410272 L72.4836725,6.81206567 C72.4836725,5.99289894 72.6267016,5.30375868 72.8997572,4.74464488 C73.4458683,3.62641728 74.4340694,3.05430084 75.7083288,3.05430084 C76.9435802,3.05430084 77.7627469,3.58740934 78.1918343,4.51059724 L78.1918343,0.687819175 L79.8431704,0.687819175 L79.8431704,10.699857 L78.4258819,10.699857 L78.2438449,9.13953939 Z M76.1764241,9.38658967 C77.4506834,9.38658967 78.2308422,8.46340177 78.2308422,6.98110007 L78.2308422,6.85107361 C78.2308422,5.40777985 77.4766887,4.4715893 76.2414373,4.4715893 C74.9541753,4.4715893 74.2390298,5.34276662 74.2390298,6.83807096 L74.2390298,6.98110007 C74.2390298,8.58042559 75.0451938,9.38658967 76.1764241,9.38658967 Z M86.5244238,9.26956586 C86.147347,10.2447643 85.3411829,10.8558887 84.1059315,10.8558887 C82.3115663,10.8558887 81.4663943,9.71165584 81.4663943,7.85227739 L81.4663943,3.22333524 L83.169741,3.22333524 L83.169741,7.38418212 C83.169741,8.5544203 83.5208124,9.36058438 84.6910506,9.36058438 C85.8222809,9.36058438 86.3943973,8.43739648 86.3943973,7.11112654 L86.3943973,3.22333524 L88.1107466,3.22333524 L88.1107466,10.699857 L86.6804555,10.699857 L86.5244238,9.26956586 Z M93.2056772,10.8948967 C90.8131902,10.8948967 89.4479123,9.55562408 89.4479123,7.11112654 L89.4479123,6.91608684 C89.4479123,6.08391747 89.6169467,5.36877191 89.9420129,4.79665546 C90.6051479,3.65242257 91.775386,3.04129819 93.2186798,3.04129819 C95.2861006,3.04129819 96.7033891,4.01649668 96.8724235,6.20094129 L96.8724235,6.22694658 L95.0910609,6.22694658 L95.0910609,6.18793864 C94.9350291,5.01770045 94.2718942,4.4975946 93.2316824,4.4975946 C92.035439,4.4975946 91.2162722,5.32976397 91.2162722,6.91608684 L91.2162722,7.08512125 C91.2162722,8.56742295 91.9704257,9.39959232 93.2186798,9.39959232 C94.3109021,9.39959232 94.9350291,8.82747588 95.1040635,7.68324298 L95.1040635,7.67024034 L96.8854261,7.67024034 L96.8854261,7.70924828 C96.7163917,9.91969818 95.2730979,10.8948967 93.2056772,10.8948967 Z M103.462658,9.20455262 C102.955555,10.1797511 101.954351,10.8948967 100.407036,10.8948967 C98.7817056,10.8948967 97.9625389,10.1147379 97.9625389,8.89248911 C97.9625389,8.06031973 98.326613,7.4361927 98.9377373,7.05911595 C99.1457797,6.91608684 99.3668247,6.81206567 99.574867,6.74705244 C100.016957,6.59102068 100.576071,6.48699951 101.512261,6.3439704 C102.851534,6.17493599 103.384642,5.99289894 103.384642,5.38177456 C103.384642,4.75764753 102.98156,4.36756813 101.811322,4.36756813 C100.576071,4.36756813 100.016957,4.90067664 99.9649464,5.86287248 L98.2095891,5.86287248 C98.326613,4.15952579 99.574867,3.04129819 101.720304,3.04129819 C102.53947,3.04129819 103.163598,3.14531936 103.657698,3.36636435 C104.632897,3.78244904 105.022976,4.57561047 105.022976,5.65483013 L105.022976,10.699857 L103.644695,10.699857 L103.462658,9.20455262 Z M100.992155,9.58162937 C101.486256,9.58162937 101.902341,9.46460555 102.266415,9.24356056 C102.994563,8.78846794 103.397645,8.03431444 103.397645,7.31916888 L103.397645,6.91608684 C103.085582,7.13713183 102.565476,7.29316359 101.889338,7.39718476 C100.979153,7.54021387 100.615079,7.64423505 100.264007,7.86528004 C99.9649464,8.06031973 99.8219173,8.32037266 99.8219173,8.64543882 C99.8219173,9.26956586 100.211997,9.58162937 100.992155,9.58162937 Z M110.950076,10.699857 L109.98788,10.699857 C109.285737,10.699857 108.739626,10.5958358 108.375552,10.4268014 C107.621398,10.0497247 107.387351,9.23055792 107.387351,7.70924828 L107.387351,4.73164223 L105.931054,4.73164223 L105.931054,3.28834847 L106.594189,3.28834847 C106.841239,3.28834847 107.010274,3.26234318 107.127298,3.21033259 C107.374348,3.09330877 107.452364,2.80725055 107.491372,2.19612617 C107.504374,1.87106 107.517377,1.42897002 107.517377,1.20792503 L108.973673,1.20792503 L108.973673,3.22333524 L110.950076,3.22333524 L110.950076,4.73164223 L108.973673,4.73164223 L108.973673,7.42319005 C108.973673,7.91729062 109.012681,8.28136472 109.077695,8.52841501 C109.194718,9.02251557 109.584798,9.1135341 110.416967,9.1135341 L110.950076,9.1135341 L110.950076,10.699857 Z M113.197427,2.41717116 C112.37826,2.41717116 112.066196,2.14411558 112.066196,1.28594091 C112.066196,0.453771538 112.443273,0.167713315 113.197427,0.167713315 C113.95158,0.167713315 114.328657,0.453771538 114.328657,1.28594091 C114.328657,2.092105 113.964583,2.41717116 113.197427,2.41717116 Z M112.313247,10.699857 L112.313247,3.22333524 L114.042599,3.22333524 L114.042599,10.699857 L112.313247,10.699857 Z M119.228548,10.8948967 C116.810056,10.8948967 115.45778,9.55562408 115.45778,7.11112654 L115.45778,6.91608684 C115.45778,6.08391747 115.626815,5.36877191 115.951881,4.79665546 C116.602013,3.65242257 117.759249,3.04129819 119.228548,3.04129819 C119.982701,3.04129819 120.619831,3.1843273 121.178945,3.49639082 C122.323178,4.1075152 122.999315,5.26475074 122.999315,6.91608684 L122.999315,7.11112654 C122.999315,7.93029327 122.843284,8.60643089 122.53122,9.16554468 C121.881088,10.2967749 120.749857,10.8948967 119.228548,10.8948967 Z M119.228548,9.39959232 C120.51581,9.39959232 121.269963,8.56742295 121.269963,7.08512125 L121.269963,6.91608684 C121.269963,5.38177456 120.476802,4.4975946 119.24155,4.4975946 C118.019302,4.4975946 117.200135,5.32976397 117.200135,6.91608684 L117.200135,7.08512125 C117.200135,8.56742295 117.954288,9.39959232 119.228548,9.39959232 Z M126.143849,10.699857 L124.427499,10.699857 L124.427499,3.22333524 L125.870793,3.22333524 L126.026825,4.71863959 C126.429907,3.69143051 127.275079,3.04129819 128.562341,3.04129819 C130.369709,3.04129819 131.331905,4.23754167 131.331905,6.09692011 L131.331905,10.699857 L129.615555,10.699857 L129.615555,6.5130048 C129.615555,5.29075603 129.225476,4.52359989 128.003227,4.52359989 C126.728968,4.52359989 126.143849,5.40777985 126.143849,6.79906302 L126.143849,10.699857 Z M138.078171,9.20455262 C137.571068,10.1797511 136.569864,10.8948967 135.022549,10.8948967 C133.397219,10.8948967 132.578052,10.1147379 132.578052,8.89248911 C132.578052,8.06031973 132.942126,7.4361927 133.55325,7.05911595 C133.761293,6.91608684 133.982338,6.81206567 134.19038,6.74705244 C134.63247,6.59102068 135.191584,6.48699951 136.127774,6.3439704 C137.467047,6.17493599 138.000155,5.99289894 138.000155,5.38177456 C138.000155,4.75764753 137.597073,4.36756813 136.426835,4.36756813 C135.191584,4.36756813 134.63247,4.90067664 134.580459,5.86287248 L132.825102,5.86287248 C132.942126,4.15952579 134.19038,3.04129819 136.335817,3.04129819 C137.154983,3.04129819 137.77911,3.14531936 138.273211,3.36636435 C139.24841,3.78244904 139.638489,4.57561047 139.638489,5.65483013 L139.638489,10.699857 L138.260208,10.699857 L138.078171,9.20455262 Z M135.607669,9.58162937 C136.101769,9.58162937 136.517854,9.46460555 136.881928,9.24356056 C137.610076,8.78846794 138.013158,8.03431444 138.013158,7.31916888 L138.013158,6.91608684 C137.701095,7.13713183 137.180989,7.29316359 136.504851,7.39718476 C135.594666,7.54021387 135.230592,7.64423505 134.87952,7.86528004 C134.580459,8.06031973 134.43743,8.32037266 134.43743,8.64543882 C134.43743,9.26956586 134.82751,9.58162937 135.607669,9.58162937 Z M141.378737,10.699857 L141.378737,0.687819175 L143.082083,0.687819175 L143.082083,10.699857 L141.378737,10.699857 Z M152.751839,10.8948967 C150.190317,10.8948967 148.773029,9.51661614 148.773029,6.48699951 L148.773029,5.70684072 C148.773029,4.73164223 148.942063,3.9384808 149.267129,3.27534583 C149.930264,1.93607324 151.165516,1.25993562 152.764841,1.25993562 C153.571005,1.25993562 154.260146,1.41596738 154.87127,1.76703883 C156.067513,2.44317645 156.769656,3.75644375 156.769656,5.70684072 L156.769656,6.48699951 C156.769656,9.4776082 155.222341,10.8948967 152.751839,10.8948967 Z M152.764841,9.33457909 C154.260146,9.33457909 155.001296,8.32037266 155.001296,6.42198628 L155.001296,5.7848566 C155.001296,3.82145698 154.260146,2.79424791 152.764841,2.79424791 C151.243532,2.79424791 150.541389,3.86046492 150.541389,5.77185395 L150.541389,6.42198628 C150.541389,8.32037266 151.243532,9.33457909 152.764841,9.33457909 Z M162.423701,10.8558887 C161.188449,10.8558887 160.369282,10.2967749 159.927192,9.38658967 L159.927192,13.274381 L158.275856,13.274381 L158.275856,3.22333524 L159.693145,3.22333524 L159.875182,4.74464488 C160.278264,3.71743581 161.149441,3.04129819 162.449706,3.04129819 C164.400103,3.04129819 165.635354,4.41957872 165.635354,6.94209213 L165.635354,7.12412919 C165.635354,7.94329591 165.492325,8.61943353 165.21927,9.17854733 C164.673158,10.2967749 163.671955,10.8558887 162.423701,10.8558887 Z M161.890592,9.41259497 C163.164851,9.41259497 163.906002,8.58042559 163.906002,7.09812389 L163.906002,6.94209213 C163.906002,5.34276662 163.099838,4.4975946 161.9296,4.4975946 C160.694349,4.4975946 159.888185,5.43378514 159.888185,6.91608684 L159.888185,7.04611331 C159.888185,8.48940707 160.655341,9.41259497 161.890592,9.41259497 Z M171.185377,10.8558887 C169.950126,10.8558887 169.130959,10.2967749 168.688869,9.38658967 L168.688869,13.274381 L167.037533,13.274381 L167.037533,3.22333524 L168.454822,3.22333524 L168.636859,4.74464488 C169.039941,3.71743581 169.911118,3.04129819 171.211383,3.04129819 C173.16178,3.04129819 174.397031,4.41957872 174.397031,6.94209213 L174.397031,7.12412919 C174.397031,7.94329591 174.254002,8.61943353 173.980946,9.17854733 C173.434835,10.2967749 172.433631,10.8558887 171.185377,10.8558887 Z M170.652269,9.41259497 C171.926528,9.41259497 172.667679,8.58042559 172.667679,7.09812389 L172.667679,6.94209213 C172.667679,5.34276662 171.861515,4.4975946 170.691277,4.4975946 C169.456025,4.4975946 168.649861,5.43378514 168.649861,6.91608684 L168.649861,7.04611331 C168.649861,8.48940707 169.417017,9.41259497 170.652269,9.41259497 Z M179.413946,10.8948967 C176.995453,10.8948967 175.643178,9.55562408 175.643178,7.11112654 L175.643178,6.91608684 C175.643178,6.08391747 175.812213,5.36877191 176.137279,4.79665546 C176.787411,3.65242257 177.944647,3.04129819 179.413946,3.04129819 C180.168099,3.04129819 180.805229,3.1843273 181.364343,3.49639082 C182.508576,4.1075152 183.184713,5.26475074 183.184713,6.91608684 L183.184713,7.11112654 C183.184713,7.93029327 183.028681,8.60643089 182.716618,9.16554468 C182.066486,10.2967749 180.935255,10.8948967 179.413946,10.8948967 Z M179.413946,9.39959232 C180.701208,9.39959232 181.455361,8.56742295 181.455361,7.08512125 L181.455361,6.91608684 C181.455361,5.38177456 180.6622,4.4975946 179.426948,4.4975946 C178.2047,4.4975946 177.385533,5.32976397 177.385533,6.91608684 L177.385533,7.08512125 C177.385533,8.56742295 178.139686,9.39959232 179.413946,9.39959232 Z M184.612897,10.699857 L184.612897,3.22333524 L185.991178,3.22333524 L186.212223,4.97869252 C186.511284,3.7434411 187.27844,3.15832201 188.695728,3.15832201 L189.202832,3.15832201 L189.202832,4.88767399 L188.461681,4.88767399 C187.863559,4.88767399 187.421469,4.96568987 187.109406,5.12172163 C186.485279,5.4207825 186.290239,6.07091482 186.290239,7.241153 L186.290239,10.699857 L184.612897,10.699857 Z M195.142934,10.699857 L194.180738,10.699857 C193.478595,10.699857 192.932484,10.5958358 192.56841,10.4268014 C191.814257,10.0497247 191.580209,9.23055792 191.580209,7.70924828 L191.580209,4.73164223 L190.123913,4.73164223 L190.123913,3.28834847 L190.787048,3.28834847 C191.034098,3.28834847 191.203132,3.26234318 191.320156,3.21033259 C191.567206,3.09330877 191.645222,2.80725055 191.68423,2.19612617 C191.697233,1.87106 191.710235,1.42897002 191.710235,1.20792503 L193.166532,1.20792503 L193.166532,3.22333524 L195.142934,3.22333524 L195.142934,4.73164223 L193.166532,4.73164223 L193.166532,7.42319005 C193.166532,7.91729062 193.20554,8.28136472 193.270553,8.52841501 C193.387577,9.02251557 193.777656,9.1135341 194.609826,9.1135341 L195.142934,9.1135341 L195.142934,10.699857 Z M201.421106,9.26956586 C201.044029,10.2447643 200.237865,10.8558887 199.002613,10.8558887 C197.208248,10.8558887 196.363076,9.71165584 196.363076,7.85227739 L196.363076,3.22333524 L198.066423,3.22333524 L198.066423,7.38418212 C198.066423,8.5544203 198.417494,9.36058438 199.587732,9.36058438 C200.718963,9.36058438 201.291079,8.43739648 201.291079,7.11112654 L201.291079,3.22333524 L203.007428,3.22333524 L203.007428,10.699857 L201.577137,10.699857 L201.421106,9.26956586 Z M206.464025,10.699857 L204.747676,10.699857 L204.747676,3.22333524 L206.19097,3.22333524 L206.347002,4.71863959 C206.750084,3.69143051 207.595256,3.04129819 208.882518,3.04129819 C210.689886,3.04129819 211.652081,4.23754167 211.652081,6.09692011 L211.652081,10.699857 L209.935732,10.699857 L209.935732,6.5130048 C209.935732,5.29075603 209.545653,4.52359989 208.323404,4.52359989 C207.049145,4.52359989 206.464025,5.40777985 206.464025,6.79906302 L206.464025,10.699857 Z M214.185491,2.41717116 C213.366324,2.41717116 213.05426,2.14411558 213.05426,1.28594091 C213.05426,0.453771538 213.431337,0.167713315 214.185491,0.167713315 C214.939644,0.167713315 215.316721,0.453771538 215.316721,1.28594091 C215.316721,2.092105 214.952647,2.41717116 214.185491,2.41717116 Z M213.301311,10.699857 L213.301311,3.22333524 L215.030663,3.22333524 L215.030663,10.699857 L213.301311,10.699857 Z M221.282829,10.699857 L220.320633,10.699857 C219.61849,10.699857 219.072379,10.5958358 218.708305,10.4268014 C217.954151,10.0497247 217.720103,9.23055792 217.720103,7.70924828 L217.720103,4.73164223 L216.263807,4.73164223 L216.263807,3.28834847 L216.926942,3.28834847 C217.173992,3.28834847 217.343027,3.26234318 217.460051,3.21033259 C217.707101,3.09330877 217.785117,2.80725055 217.824125,2.19612617 C217.837127,1.87106 217.85013,1.42897002 217.85013,1.20792503 L219.306426,1.20792503 L219.306426,3.22333524 L221.282829,3.22333524 L221.282829,4.73164223 L219.306426,4.73164223 L219.306426,7.42319005 C219.306426,7.91729062 219.345434,8.28136472 219.410448,8.52841501 C219.527471,9.02251557 219.917551,9.1135341 220.74972,9.1135341 L221.282829,9.1135341 L221.282829,10.699857 Z M222.372944,13.495426 L222.372944,12.0131243 L223.244121,12.0131243 C223.569187,12.0131243 223.842243,11.9741163 224.037283,11.9221057 C224.440365,11.8050819 224.66141,11.5060211 224.960471,10.8558887 L225.1035,10.5048173 L222.00887,3.22333524 L223.82924,3.22333524 L225.857653,8.28136472 L225.922666,8.61943353 L226.013685,8.29436737 L227.990087,3.22333524 L229.784453,3.22333524 L226.507786,11.1289443 C226.078698,12.169156 225.740629,12.7672778 225.298539,13.0923439 C224.843447,13.4174101 224.245325,13.495426 223.231119,13.495426 L222.372944,13.495426 Z M236.580623,7.77426151 L236.580623,10.699857 L234.903281,10.699857 L234.903281,1.42897002 L238.400993,1.42897002 C239.233163,1.42897002 239.9093,1.55899649 240.455411,1.83205207 C241.547634,2.35215792 242.080742,3.32735641 242.080742,4.57561047 C242.080742,6.52600745 240.923507,7.78726416 238.466007,7.77426151 L236.580623,7.77426151 Z M236.580623,2.88526643 L236.580623,6.3179651 L238.440001,6.3179651 C239.675253,6.3179651 240.377396,5.70684072 240.377396,4.57561047 C240.377396,3.56140405 239.740266,2.88526643 238.400993,2.88526643 L236.580623,2.88526643 Z M243.430911,10.699857 L243.430911,3.22333524 L244.809191,3.22333524 L245.030236,4.97869252 C245.329297,3.7434411 246.096453,3.15832201 247.513742,3.15832201 L248.020845,3.15832201 L248.020845,4.88767399 L247.279694,4.88767399 C246.681572,4.88767399 246.239482,4.96568987 245.927419,5.12172163 C245.303292,5.4207825 245.108252,6.07091482 245.108252,7.241153 L245.108252,10.699857 L243.430911,10.699857 Z M252.465643,10.8948967 C250.047151,10.8948967 248.694875,9.55562408 248.694875,7.11112654 L248.694875,6.91608684 C248.694875,6.08391747 248.86391,5.36877191 249.188976,4.79665546 C249.839108,3.65242257 250.996344,3.04129819 252.465643,3.04129819 C253.219796,3.04129819 253.856926,3.1843273 254.41604,3.49639082 C255.560273,4.1075152 256.23641,5.26475074 256.23641,6.91608684 L256.23641,7.11112654 C256.23641,7.93029327 256.080379,8.60643089 255.768315,9.16554468 C255.118183,10.2967749 253.986953,10.8948967 252.465643,10.8948967 Z M252.465643,9.39959232 C253.752905,9.39959232 254.507058,8.56742295 254.507058,7.08512125 L254.507058,6.91608684 C254.507058,5.38177456 253.713897,4.4975946 252.478646,4.4975946 C251.256397,4.4975946 250.43723,5.32976397 250.43723,6.91608684 L250.43723,7.08512125 C250.43723,8.56742295 251.191384,9.39959232 252.465643,9.39959232 Z M258.561777,2.41717116 C257.742611,2.41717116 257.430547,2.14411558 257.430547,1.28594091 C257.430547,0.453771538 257.807624,0.167713315 258.561777,0.167713315 C259.315931,0.167713315 259.693008,0.453771538 259.693008,1.28594091 C259.693008,2.092105 259.328933,2.41717116 258.561777,2.41717116 Z M256.156288,13.7684815 L256.156288,12.1821587 L256.533364,12.1821587 C256.858431,12.1821587 257.118484,12.1561534 257.287518,12.1041428 C257.638589,11.987119 257.716605,11.6620528 257.716605,10.8428861 L257.716605,3.22333524 L259.380944,3.22333524 L259.380944,11.0509284 C259.380944,12.1431507 259.26392,12.832291 258.860838,13.235373 C258.483761,13.6124498 257.794621,13.7684815 256.702399,13.7684815 L256.156288,13.7684815 Z M268.103613,8.48940707 C267.674526,10.0107167 266.465279,10.8948967 264.50188,10.8948967 C261.979366,10.8948967 260.744115,9.43860026 260.744115,7.12412919 L260.744115,6.94209213 C260.744115,6.13592805 260.900147,5.47279308 261.21221,4.87467134 C261.836337,3.70443316 262.98057,3.04129819 264.55389,3.04129819 C265.841152,3.04129819 266.751338,3.48338817 267.349459,4.19853373 C267.947581,4.91367928 268.207634,5.83686718 268.207634,6.79906302 L268.207634,7.59222446 L262.434459,7.59222446 C262.577488,8.81447323 263.331642,9.49061085 264.566893,9.49061085 C265.477078,9.49061085 266.010187,9.13953939 266.27024,8.48940707 L268.103613,8.48940707 Z M264.566893,4.39357342 C263.383652,4.39357342 262.642501,5.06971104 262.447462,6.25295187 L266.504287,6.25295187 C266.387264,5.10871898 265.763137,4.39357342 264.566893,4.39357342 Z M273.159535,10.8948967 C270.767049,10.8948967 269.401771,9.55562408 269.401771,7.11112654 L269.401771,6.91608684 C269.401771,6.08391747 269.570805,5.36877191 269.895871,4.79665546 C270.559006,3.65242257 271.729244,3.04129819 273.172538,3.04129819 C275.239959,3.04129819 276.657247,4.01649668 276.826282,6.20094129 L276.826282,6.22694658 L275.044919,6.22694658 L275.044919,6.18793864 C274.888887,5.01770045 274.225752,4.4975946 273.185541,4.4975946 C271.989297,4.4975946 271.170131,5.32976397 271.170131,6.91608684 L271.170131,7.08512125 C271.170131,8.56742295 271.924284,9.39959232 273.172538,9.39959232 C274.26476,9.39959232 274.888887,8.82747588 275.057922,7.68324298 L275.057922,7.67024034 L276.839284,7.67024034 L276.839284,7.70924828 C276.67025,9.91969818 275.226956,10.8948967 273.159535,10.8948967 Z M282.493329,10.699857 L281.531133,10.699857 C280.82899,10.699857 280.282879,10.5958358 279.918805,10.4268014 C279.164651,10.0497247 278.930604,9.23055792 278.930604,7.70924828 L278.930604,4.73164223 L277.474307,4.73164223 L277.474307,3.28834847 L278.137442,3.28834847 C278.384492,3.28834847 278.553527,3.26234318 278.670551,3.21033259 C278.917601,3.09330877 278.995617,2.80725055 279.034625,2.19612617 C279.047627,1.87106 279.06063,1.42897002 279.06063,1.20792503 L280.516926,1.20792503 L280.516926,3.22333524 L282.493329,3.22333524 L282.493329,4.73164223 L280.516926,4.73164223 L280.516926,7.42319005 C280.516926,7.91729062 280.555934,8.28136472 280.620948,8.52841501 C280.737971,9.02251557 281.128051,9.1135341 281.96022,9.1135341 L282.493329,9.1135341 L282.493329,10.699857 Z M41.1448264,24.9690965 C40.6377231,25.944295 39.6365194,26.6594406 38.0892044,26.6594406 C36.4638736,26.6594406 35.6447069,25.8792818 35.6447069,24.657033 C35.6447069,23.8248637 36.008781,23.2007366 36.6199054,22.8236599 C36.8279477,22.6806308 37.0489927,22.5766096 37.257035,22.5115964 C37.699125,22.3555646 38.2582388,22.2515434 39.1944294,22.1085143 C40.533702,21.9394799 41.0668105,21.7574429 41.0668105,21.1463185 C41.0668105,20.5221914 40.6637284,20.1321121 39.4934902,20.1321121 C38.2582388,20.1321121 37.699125,20.6652206 37.6471144,21.6274164 L35.8917572,21.6274164 C36.008781,19.9240697 37.257035,18.8058421 39.4024717,18.8058421 C40.2216384,18.8058421 40.8457655,18.9098633 41.339866,19.1309083 C42.3150645,19.546993 42.7051439,20.3401544 42.7051439,21.4193741 L42.7051439,26.4644009 L41.3268634,26.4644009 L41.1448264,24.9690965 Z M38.6743235,25.3461733 C39.1684241,25.3461733 39.5845088,25.2291495 39.9485829,25.0081045 C40.6767311,24.5530119 41.0798131,23.7988584 41.0798131,23.0837128 L41.0798131,22.6806308 C40.7677496,22.9016758 40.2476437,23.0577075 39.5715061,23.1617287 C38.6613209,23.3047578 38.2972468,23.408779 37.9461753,23.629824 C37.6471144,23.8248637 37.5040853,24.0849166 37.5040853,24.4099827 C37.5040853,25.0341098 37.8941647,25.3461733 38.6743235,25.3461733 Z M48.6322438,26.4644009 L47.670048,26.4644009 C46.9679051,26.4644009 46.4217939,26.3603797 46.0577198,26.1913453 C45.3035663,25.8142686 45.0695187,24.9951018 45.0695187,23.4737922 L45.0695187,20.4961862 L43.6132223,20.4961862 L43.6132223,19.0528924 L44.2763572,19.0528924 C44.5234075,19.0528924 44.6924419,19.0268871 44.8094657,18.9748765 C45.056516,18.8578527 45.1345319,18.5717945 45.1735398,17.9606701 C45.1865425,17.6356039 45.1995451,17.1935139 45.1995451,16.972469 L46.6558415,16.972469 L46.6558415,18.9878792 L48.6322438,18.9878792 L48.6322438,20.4961862 L46.6558415,20.4961862 L46.6558415,23.187734 C46.6558415,23.6818345 46.6948495,24.0459086 46.7598627,24.2929589 C46.8768865,24.7870595 47.2669659,24.878078 48.0991353,24.878078 L48.6322438,24.878078 L48.6322438,26.4644009 Z M57.3788111,26.6594406 C56.4426205,26.6594406 55.7014697,26.5294141 55.1293532,26.2563585 C53.998123,25.7362527 53.5300277,24.7220463 53.4780171,23.2527472 L55.2983876,23.2527472 C55.3373956,24.5400092 55.9615226,25.1641362 57.4048164,25.1641362 C58.6400678,25.1641362 59.1991816,24.5530119 59.1991816,23.7988584 C59.1991816,23.4737922 59.0951604,23.2007366 58.8741154,23.0317022 C58.4190228,22.6806308 57.6648693,22.524599 56.8457026,22.3685672 C56.1175544,22.2125355 55.3764035,22.0304984 54.7782818,21.6664243 C54.18016,21.2893476 53.8030833,20.6912259 53.8030833,19.6770194 C53.8030833,19.2089242 53.9331098,18.7668342 54.1541547,18.3637521 C54.6482553,17.557588 55.6104512,17.0244795 57.1057555,17.0244795 C59.5632557,17.0244795 60.6424753,18.1557098 60.7074886,20.0150882 L58.9391287,20.0150882 C58.8741154,18.9488712 58.3670122,18.4547707 57.0797502,18.4547707 C55.94852,18.4547707 55.5194326,19.0008818 55.5194326,19.6510141 C55.5194326,19.9630776 55.6234538,20.2101279 55.8314961,20.3661597 C56.2735861,20.6912259 56.9887317,20.834255 57.7948958,21.0032894 C58.5620519,21.1593211 59.3162054,21.3543608 59.9143271,21.7314376 C60.5124489,22.1085143 60.9025283,22.7326413 60.9025283,23.7598504 C60.9025283,24.2799563 60.7725018,24.7610542 60.5124489,25.2161468 C59.9663377,26.0873241 58.926126,26.6594406 57.3788111,26.6594406 Z M66.6865991,26.4644009 L65.7244032,26.4644009 C65.0222603,26.4644009 64.4761491,26.3603797 64.112075,26.1913453 C63.3579216,25.8142686 63.1238739,24.9951018 63.1238739,23.4737922 L63.1238739,20.4961862 L61.6675775,20.4961862 L61.6675775,19.0528924 L62.3307125,19.0528924 C62.5777628,19.0528924 62.7467972,19.0268871 62.863821,18.9748765 C63.1108713,18.8578527 63.1888871,18.5717945 63.2278951,17.9606701 C63.2408977,17.6356039 63.2539004,17.1935139 63.2539004,16.972469 L64.7101968,16.972469 L64.7101968,18.9878792 L66.6865991,18.9878792 L66.6865991,20.4961862 L64.7101968,20.4961862 L64.7101968,23.187734 C64.7101968,23.6818345 64.7492047,24.0459086 64.814218,24.2929589 C64.9312418,24.7870595 65.3213212,24.878078 66.1534905,24.878078 L66.6865991,24.878078 L66.6865991,26.4644009 Z M73.1468074,24.9690965 C72.6397042,25.944295 71.6385005,26.6594406 70.0911855,26.6594406 C68.4658547,26.6594406 67.646688,25.8792818 67.646688,24.657033 C67.646688,23.8248637 68.0107621,23.2007366 68.6218865,22.8236599 C68.8299288,22.6806308 69.0509738,22.5766096 69.2590161,22.5115964 C69.7011061,22.3555646 70.2602199,22.2515434 71.1964105,22.1085143 C72.5356831,21.9394799 73.0687916,21.7574429 73.0687916,21.1463185 C73.0687916,20.5221914 72.6657095,20.1321121 71.4954713,20.1321121 C70.2602199,20.1321121 69.7011061,20.6652206 69.6490955,21.6274164 L67.8937383,21.6274164 C68.0107621,19.9240697 69.2590161,18.8058421 71.4044528,18.8058421 C72.2236195,18.8058421 72.8477466,18.9098633 73.3418471,19.1309083 C74.3170456,19.546993 74.707125,20.3401544 74.707125,21.4193741 L74.707125,26.4644009 L73.3288445,26.4644009 L73.1468074,24.9690965 Z M70.6763046,25.3461733 C71.1704052,25.3461733 71.5864899,25.2291495 71.950564,25.0081045 C72.6787122,24.5530119 73.0817942,23.7988584 73.0817942,23.0837128 L73.0817942,22.6806308 C72.7697307,22.9016758 72.2496248,23.0577075 71.5734872,23.1617287 C70.663302,23.3047578 70.2992279,23.408779 69.9481564,23.629824 C69.6490955,23.8248637 69.5060664,24.0849166 69.5060664,24.4099827 C69.5060664,25.0341098 69.8961458,25.3461733 70.6763046,25.3461733 Z M78.1247141,26.4644009 L76.4083648,26.4644009 L76.4083648,18.9878792 L77.8516586,18.9878792 L78.0076903,20.4831835 C78.4107724,19.4559744 79.2559444,18.8058421 80.5432064,18.8058421 C82.3505742,18.8058421 83.3127701,20.0020856 83.3127701,21.861464 L83.3127701,26.4644009 L81.5964208,26.4644009 L81.5964208,22.2775487 C81.5964208,21.0553 81.2063414,20.2881438 79.9840926,20.2881438 C78.7098332,20.2881438 78.1247141,21.1723238 78.1247141,22.5636069 L78.1247141,26.4644009 Z M87.107436,20.4701809 L87.0944333,26.4644009 L85.4691025,26.4644009 L85.4691025,20.4701809 L84.1558352,20.4701809 L84.1558352,18.9878792 L85.4691025,18.9878792 L85.4691025,18.6888183 C85.4691025,16.7774293 86.2102533,16.0622837 87.9916159,16.0622837 L88.8757959,16.0622837 L88.8757959,17.4665695 L88.2256636,17.4665695 C87.9136,17.4665695 87.6665498,17.5055775 87.510518,17.5705907 C87.1854518,17.7136198 87.107436,18.0776939 87.107436,18.8968606 L87.107436,18.9878792 L88.8627932,18.9878792 L88.8627932,20.4701809 L87.107436,20.4701809 Z M93.177565,26.6594406 C90.7590727,26.6594406 89.4067975,25.320168 89.4067975,22.8756705 L89.4067975,22.6806308 C89.4067975,21.8484614 89.5758319,21.1333158 89.900898,20.5611994 C90.5510304,19.4169665 91.7082659,18.8058421 93.177565,18.8058421 C93.9317184,18.8058421 94.5688481,18.9488712 95.1279619,19.2609347 C96.2721948,19.8720591 96.9483324,21.0292947 96.9483324,22.6806308 L96.9483324,22.8756705 C96.9483324,23.6948372 96.7923007,24.3709748 96.4802372,24.9300886 C95.8301048,26.0613188 94.6988746,26.6594406 93.177565,26.6594406 Z M93.177565,25.1641362 C94.464827,25.1641362 95.2189805,24.3319669 95.2189805,22.8496652 L95.2189805,22.6806308 C95.2189805,21.1463185 94.425819,20.2621385 93.1905676,20.2621385 C91.9683188,20.2621385 91.1491521,21.0943079 91.1491521,22.6806308 L91.1491521,22.8496652 C91.1491521,24.3319669 91.9033056,25.1641362 93.177565,25.1641362 Z M98.3765166,26.4644009 L98.3765166,18.9878792 L99.7547972,18.9878792 L99.9758422,20.7432364 C100.274903,19.507985 101.042059,18.9228659 102.459348,18.9228659 L102.966451,18.9228659 L102.966451,20.6522179 L102.2253,20.6522179 C101.627178,20.6522179 101.185088,20.7302338 100.873025,20.8862655 C100.248898,21.1853264 100.053858,21.8354587 100.053858,23.0056969 L100.053858,26.4644009 L98.3765166,26.4644009 Z M109.400654,24.9040833 C108.997572,25.9182897 108.1524,26.6204326 106.813127,26.6204326 C104.901738,26.6204326 103.640482,25.2811601 103.640482,22.7586466 L103.640482,22.5766096 C103.640482,21.7574429 103.783511,21.0683026 104.056566,20.5091888 C104.602677,19.3909612 105.590879,18.8188448 106.865138,18.8188448 C108.100389,18.8188448 108.919556,19.3519533 109.348643,20.2751412 L109.348643,16.4523631 L110.999979,16.4523631 L110.999979,26.4644009 L109.582691,26.4644009 L109.400654,24.9040833 Z M107.333233,25.1511336 C108.607492,25.1511336 109.387651,24.2279457 109.387651,22.745644 L109.387651,22.6156175 C109.387651,21.1723238 108.633498,20.2361332 107.398246,20.2361332 C106.110984,20.2361332 105.395839,21.1073105 105.395839,22.6026149 L105.395839,22.745644 C105.395839,24.3449695 106.202003,25.1511336 107.333233,25.1511336 Z M120.539708,26.6594406 C118.069205,26.6594406 116.91197,25.3591759 116.91197,22.4465831 L116.91197,17.1935139 L118.68033,17.1935139 L118.68033,22.3815699 C118.68033,24.2279457 119.226441,25.0081045 120.552711,25.0081045 C121.878981,25.0081045 122.373081,24.2409483 122.373081,22.3815699 L122.373081,17.1935139 L124.154444,17.1935139 L124.154444,22.4465831 C124.154444,25.3591759 122.90619,26.6594406 120.539708,26.6594406 Z M127.50702,26.4644009 L125.79067,26.4644009 L125.79067,18.9878792 L127.233964,18.9878792 L127.389996,20.4831835 C127.793078,19.4559744 128.63825,18.8058421 129.925512,18.8058421 C131.73288,18.8058421 132.695076,20.0020856 132.695076,21.861464 L132.695076,26.4644009 L130.978726,26.4644009 L130.978726,22.2775487 C130.978726,21.0553 130.588647,20.2881438 129.366398,20.2881438 C128.092139,20.2881438 127.50702,21.1723238 127.50702,22.5636069 L127.50702,26.4644009 Z M135.228485,18.1817151 C134.409318,18.1817151 134.097255,17.9086595 134.097255,17.0504848 C134.097255,16.2183155 134.474331,15.9322572 135.228485,15.9322572 C135.982638,15.9322572 136.359715,16.2183155 136.359715,17.0504848 C136.359715,17.8566489 135.995641,18.1817151 135.228485,18.1817151 Z M134.344305,26.4644009 L134.344305,18.9878792 L136.073657,18.9878792 L136.073657,26.4644009 L134.344305,26.4644009 Z M139.998349,26.4644009 L137.059751,18.9878792 L138.841114,18.9878792 L140.778508,24.3449695 L142.793918,18.9878792 L144.588283,18.9878792 L141.519659,26.4644009 L139.998349,26.4644009 Z M152.257738,24.253951 C151.828651,25.7752606 150.619404,26.6594406 148.656005,26.6594406 C146.133491,26.6594406 144.89824,25.2031442 144.89824,22.8886731 L144.89824,22.7066361 C144.89824,21.900472 145.054272,21.237337 145.366335,20.6392153 C145.990462,19.4689771 147.134695,18.8058421 148.708015,18.8058421 C149.995277,18.8058421 150.905463,19.2479321 151.503584,19.9630776 C152.101706,20.6782232 152.361759,21.6014111 152.361759,22.5636069 L152.361759,23.3567684 L146.588584,23.3567684 C146.731613,24.5790171 147.485767,25.2551548 148.721018,25.2551548 C149.631203,25.2551548 150.164312,24.9040833 150.424365,24.253951 L152.257738,24.253951 Z M148.721018,20.1581173 C147.537777,20.1581173 146.796626,20.834255 146.601587,22.0174958 L150.658412,22.0174958 C150.541389,20.8732629 149.917262,20.1581173 148.721018,20.1581173 Z M153.750935,26.4644009 L153.750935,18.9878792 L155.129216,18.9878792 L155.350261,20.7432364 C155.649322,19.507985 156.416478,18.9228659 157.833766,18.9228659 L158.34087,18.9228659 L158.34087,20.6522179 L157.599719,20.6522179 C157.001597,20.6522179 156.559507,20.7302338 156.247444,20.8862655 C155.623316,21.1853264 155.428277,21.8354587 155.428277,23.0056969 L155.428277,26.4644009 L153.750935,26.4644009 Z M162.603631,26.6594406 C160.302162,26.6594406 159.183935,25.7362527 158.96289,23.9938981 L160.809266,23.9938981 C160.965297,24.878078 161.576422,25.2291495 162.642639,25.2291495 C163.734861,25.2291495 164.163948,24.8650754 164.163948,24.2669536 C164.163948,24.0459086 164.07293,23.8638716 163.87789,23.7468478 C163.500813,23.5258028 162.850681,23.4347843 162.135535,23.3307631 C161.459398,23.2267419 160.770258,23.1097181 160.211144,22.8106572 C159.65203,22.5115964 159.300959,22.0044931 159.300959,21.1723238 C159.300959,19.7940432 160.328168,18.8058421 162.382586,18.8058421 C164.528022,18.8058421 165.503221,19.72903 165.711263,21.2243344 L163.968909,21.2243344 C163.851885,20.4961862 163.357784,20.17112 162.369583,20.17112 C161.303366,20.17112 160.9783,20.5481967 160.9783,21.0683026 C160.9783,21.2893476 161.069318,21.4713846 161.264358,21.5884085 C161.641435,21.8094534 162.30457,21.900472 163.019715,22.0044931 C163.695853,22.1085143 164.384993,22.2255381 164.944107,22.524599 C165.503221,22.8236599 165.854292,23.3307631 165.854292,24.1629325 C165.854292,25.6062262 164.814081,26.6594406 162.603631,26.6594406 Z M168.075638,18.1817151 C167.256471,18.1817151 166.944408,17.9086595 166.944408,17.0504848 C166.944408,16.2183155 167.321485,15.9322572 168.075638,15.9322572 C168.829791,15.9322572 169.206868,16.2183155 169.206868,17.0504848 C169.206868,17.8566489 168.842794,18.1817151 168.075638,18.1817151 Z M167.191458,26.4644009 L167.191458,18.9878792 L168.92081,18.9878792 L168.92081,26.4644009 L167.191458,26.4644009 Z M175.172976,26.4644009 L174.21078,26.4644009 C173.508637,26.4644009 172.962526,26.3603797 172.598452,26.1913453 C171.844299,25.8142686 171.610251,24.9951018 171.610251,23.4737922 L171.610251,20.4961862 L170.153955,20.4961862 L170.153955,19.0528924 L170.817089,19.0528924 C171.06414,19.0528924 171.233174,19.0268871 171.350198,18.9748765 C171.597248,18.8578527 171.675264,18.5717945 171.714272,17.9606701 C171.727275,17.6356039 171.740277,17.1935139 171.740277,16.972469 L173.196574,16.972469 L173.196574,18.9878792 L175.172976,18.9878792 L175.172976,20.4961862 L173.196574,20.4961862 L173.196574,23.187734 C173.196574,23.6818345 173.235582,24.0459086 173.300595,24.2929589 C173.417619,24.7870595 173.807698,24.878078 174.639868,24.878078 L175.172976,24.878078 L175.172976,26.4644009 Z M176.263091,29.2599699 L176.263091,27.7776682 L177.134269,27.7776682 C177.459335,27.7776682 177.732391,27.7386602 177.92743,27.6866497 C178.330512,27.5696258 178.551557,27.270565 178.850618,26.6204326 L178.993647,26.2693612 L175.899017,18.9878792 L177.719388,18.9878792 L179.747801,24.0459086 L179.812814,24.3839775 L179.903832,24.0589113 L181.880235,18.9878792 L183.6746,18.9878792 L180.397933,26.8934882 C179.968846,27.9336999 179.630777,28.5318217 179.188687,28.8568878 C178.733594,29.181954 178.135473,29.2599699 177.121266,29.2599699 L176.263091,29.2599699 Z" id="TheEducationalOpportunityProjectatStanfordUniversity" fill="#032664" class="logo-words" fill-rule="nonzero"></path>
        <path d="M-11.137009,14.13264 L12.862991,14.146718" id="Line-Copy-Copy" stroke="url(#linearGradient-1)" stroke-width="1.56" stroke-linecap="round" stroke-linejoin="round" transform="translate(0.862991, 14.139679) rotate(-90.000000) translate(-0.862991, -14.139679) "></path>
        <path d="M0.8599996,26.5896549 L24.8599996,26.6497031" id="Line-Copy-2-Copy" stroke="url(#linearGradient-1)" stroke-width="1.56" stroke-linecap="round" stroke-linejoin="round"></path>
        <path d="M11.2367251,16.4804016 C11.3787297,17.3968976 10.761244,18.2584475 9.8575323,18.4047272 C8.95382058,18.5510068 8.10610001,17.9266231 7.96409543,17.010127 C7.82209085,16.093631 8.43957651,15.2320811 9.34328824,15.0858015 C10.247,14.9395219 11.0947205,15.5639056 11.2367251,16.4804016 Z M8.72850565,22.5539179 C8.76820772,22.8069086 8.60046773,23.0439521 8.35384789,23.0833692 C8.10722809,23.1227865 7.8751183,22.9496506 7.83541622,22.6966599 C7.79571415,22.4436691 7.96345412,22.2066257 8.21007394,22.1672084 C8.45669378,22.1277913 8.68880354,22.300927 8.72850565,22.5539179 Z M4.1618973,20.9160947 C4.20159938,21.1690855 4.03385939,21.406129 3.78723958,21.4455461 C3.54061974,21.4849633 3.30850997,21.3118276 3.26880789,21.0588367 C3.22910581,20.8058459 3.39684579,20.5688025 3.64346563,20.5293853 C3.89008544,20.4899682 4.12219523,20.6631039 4.1618973,20.9160947 Z M11.2652396,20.761063 C11.3728454,21.4553694 10.9052093,22.1080073 10.2207453,22.2187704 C9.5362813,22.3295336 8.89418196,21.8564785 8.78657621,21.162172 C8.67897046,20.4678655 9.14660646,19.8152276 9.8310705,19.7044645 C10.5155345,19.5937013 11.1576339,20.0667565 11.2652396,20.761063 Z M12.870907,18.685651 C12.9370771,19.1073024 12.6575105,19.5023749 12.2464775,19.5680701 C11.8354444,19.6337653 11.4485948,19.3452058 11.3824247,18.9235544 C11.3162545,18.5019031 11.5958211,18.1068306 12.0068542,18.0411354 C12.4178873,17.9754402 12.8047369,18.2639997 12.870907,18.685651 Z M11.4249285,8.57585498 C11.4646306,8.8288458 11.2968906,9.06588926 11.0502708,9.10530639 C10.8036509,9.14472351 10.5715412,8.97158783 10.5318391,8.71859701 C10.492137,8.46560619 10.659877,8.2285627 10.9064968,8.18914558 C11.1531166,8.14972846 11.3852264,8.32286416 11.4249285,8.57585498 Z M8.74434845,11.0523745 C8.78405053,11.3053653 8.61631056,11.5424088 8.36969073,11.5818259 C8.1230709,11.621243 7.89096113,11.4481073 7.85125906,11.1951165 C7.81155698,10.9421257 7.97929695,10.7050822 8.22591678,10.6656651 C8.47253661,10.626248 8.70464638,10.7993837 8.74434845,11.0523745 Z M15.8183153,11.8408287 C15.9490807,12.6846502 15.3806736,13.4778496 14.5487426,13.6124893 C13.7168116,13.7471289 12.9363919,13.1722234 12.8056266,12.328402 C12.6748612,11.4845805 13.2432682,10.6913811 14.0751992,10.5567414 C14.9071303,10.4221018 15.6875499,10.9970072 15.8183153,11.8408287 Z M8.69160497,19.0000624 C8.79322057,19.6493504 8.36121697,20.2581462 7.7266979,20.359846 C7.09217884,20.4615458 6.49542377,20.0176378 6.39380815,19.3683498 C6.29219253,18.7190619 6.72419613,18.110266 7.35871522,18.0085663 C7.99323429,17.9068665 8.58998935,18.3507744 8.69160497,19.0000624 Z M5.94531159,24.6446347 C5.98501366,24.8976254 5.81727367,25.1346689 5.57065385,25.174086 C5.32403403,25.2135033 5.09192423,25.0403674 5.05222216,24.7873767 C5.01252009,24.5343859 5.18026008,24.2973425 5.42687988,24.2579252 C5.67349972,24.2185081 5.9056095,24.3916438 5.94531159,24.6446347 Z M17.2951138,11.0618367 C17.3348159,11.3148275 17.1670759,11.551871 16.9204561,11.5912881 C16.6738362,11.6307052 16.4417265,11.4575695 16.4020244,11.2045787 C16.3623223,10.9515879 16.5300623,10.7145444 16.7766821,10.6751273 C17.023302,10.6357102 17.2554117,10.8088458 17.2951138,11.0618367 Z M14.1494201,7.77525431 C14.2163752,8.20190779 13.933492,8.60166704 13.5175828,8.66814158 C13.1016737,8.73461613 12.7102348,8.44263344 12.6432797,8.01597997 C12.5763246,7.58932649 12.8592077,7.18956725 13.2751169,7.1230927 C13.6910261,7.05661815 14.082465,7.34860085 14.1494201,7.77525431 Z M12.5637927,11.1399394 C12.6307478,11.5665929 12.3478647,11.9663522 11.9319555,12.0328267 C11.5160463,12.0993013 11.1246074,11.8073186 11.0576523,11.3806651 C10.9906972,10.9540116 11.2735804,10.5542524 11.6894895,10.4877778 C12.1053987,10.4213033 12.4968376,10.713286 12.5637927,11.1399394 Z M16.5704937,20.0766866 C16.6101958,20.3296774 16.4424558,20.5667209 16.1958359,20.6061381 C15.9492161,20.6455552 15.7171063,20.4724195 15.6774043,20.2194287 C15.6377022,19.9664378 15.8054422,19.7293944 16.052062,19.6899773 C16.2986818,19.6505601 16.5307916,19.8236958 16.5704937,20.0766866 Z M20.9296884,3.10158082 C20.9958585,3.52323218 20.7162919,3.91830465 20.3052588,3.98399985 C19.8942258,4.04969505 19.5073762,3.76113556 19.441206,3.3394842 C19.3750359,2.91783284 19.6546025,2.52276037 20.0656356,2.45706517 C20.4766686,2.39136997 20.8635182,2.67992946 20.9296884,3.10158082 Z M16.7736977,4.35589877 C16.8133998,4.60888959 16.6456598,4.84593306 16.39904,4.88535018 C16.1524201,4.9247673 15.9203104,4.75163163 15.8806083,4.49864081 C15.8409062,4.24564998 16.0086462,4.0086065 16.255266,3.96918937 C16.5018858,3.92977225 16.7339956,4.10290795 16.7736977,4.35589877 Z M14.289105,15.4019111 C14.3949772,16.0765533 13.9476706,16.7086692 13.2900177,16.8137815 C12.6323649,16.9188939 12.0134055,16.4571987 11.9075333,15.7825565 C11.801661,15.1079143 12.2489677,14.4757984 12.9066205,14.370686 C13.5642734,14.2655737 14.1832328,14.7272689 14.289105,15.4019111 Z M19.1314997,11.5547181 C19.1976698,11.9763694 18.9181032,12.3714419 18.5070701,12.4371371 C18.0960371,12.5028323 17.7091875,12.2142728 17.6430173,11.7926215 C17.5768472,11.3709701 17.8564138,10.9758976 18.2674469,10.9102024 C18.6784799,10.8445072 19.0653296,11.1330667 19.1314997,11.5547181 Z M16.7092844,17.0800556 C16.7886886,17.5860372 16.4532086,18.0601242 15.9599689,18.1389584 C15.4667293,18.2177927 15.0025097,17.8715213 14.9231056,17.3655397 C14.8437014,16.859558 15.1791814,16.3854711 15.672421,16.3066368 C16.1656607,16.2278026 16.6298802,16.574074 16.7092844,17.0800556 Z M7.3629729,16.2221849 C7.44123162,16.7271351 7.10113271,17.2017808 6.60334071,17.2823359 C6.10554871,17.3628909 5.63856732,17.0188507 5.5603086,16.5139006 C5.48204988,16.0089505 5.82214879,15.5343047 6.31994079,15.4537497 C6.81773279,15.3731946 7.28471417,15.7172348 7.3629729,16.2221849 Z M7.4097908,21.5317202 C7.49782879,22.0997896 7.11521467,22.6337641 6.55519821,22.7243853 C5.99518176,22.8150068 5.46982983,22.4279586 5.38179182,21.8598893 C5.29375383,21.2918199 5.67636797,20.7578455 6.23638443,20.6672241 C6.79640086,20.5766027 7.3217528,20.9636508 7.4097908,21.5317202 Z M4.67792492,17.8987179 C4.717627,18.1517087 4.54988703,18.3887522 4.3032672,18.4281693 C4.05664736,18.4675864 3.8245376,18.2944508 3.78483553,18.0414599 C3.74513345,17.7884691 3.91287341,17.5514256 4.15949325,17.5120085 C4.40611309,17.4725914 4.63822285,17.6457271 4.67792492,17.8987179 Z M18.5145103,13.7851055 C18.6123337,14.4162932 18.1872101,15.0096004 17.5649701,15.1102942 C16.9427301,15.210988 16.3590033,14.7809377 16.26118,14.1497501 C16.1633565,13.5185624 16.5884802,12.9252553 17.2107202,12.8245615 C17.8329602,12.7238676 18.4166869,13.1539179 18.5145103,13.7851055 Z M11.9773887,13.2975406 C12.0567929,13.8035223 11.7213129,14.2776092 11.2280732,14.3564435 C10.7348336,14.4352777 10.270614,14.0890063 10.1912099,13.5830247 C10.1118057,13.077043 10.4472857,12.6029561 10.9405253,12.5241218 C11.433765,12.4452876 11.8979845,12.791559 11.9773887,13.2975406 Z M16.2890529,9.22346258 C16.355223,9.64511394 16.0756564,10.0401864 15.6646233,10.1058816 C15.2535903,10.1715768 14.8667407,9.88301732 14.8005706,9.46136596 C14.7344004,9.0397146 15.013967,8.64464213 15.4250001,8.57894693 C15.8360331,8.51325173 16.2228828,8.80181122 16.2890529,9.22346258 Z M17.629181,6.05913265 C17.6953511,6.48078403 17.4157845,6.87585648 17.0047514,6.94155168 C16.5937184,7.0072469 16.2068688,6.71868741 16.1406986,6.29703603 C16.0745285,5.87538467 16.3540951,5.48031222 16.7651282,5.414617 C17.1761612,5.3489218 17.5630108,5.63748129 17.629181,6.05913265 Z M19.0273886,8.15702738 C19.117189,8.73043647 18.7359978,9.26799119 18.175974,9.35768945 C17.6159503,9.4473877 17.0891637,9.05526259 16.9993633,8.48185347 C16.9095628,7.90844438 17.2907541,7.37088967 17.8507778,7.2811914 C18.4108016,7.19149316 18.9375881,7.58361827 19.0273886,8.15702738 Z M20.6282924,6.58264435 C20.6944626,7.00429571 20.414896,7.39936816 20.0038629,7.46506338 C19.5928299,7.53075858 19.2059802,7.24219909 19.1398101,6.82054773 C19.07364,6.39889635 19.3532066,6.0038239 19.7642397,5.9381287 C20.1752727,5.87243348 20.5621223,6.16099297 20.6282924,6.58264435 Z" id="Combined-Shape-Copy" fill="url(#linearGradient-2)" fill-rule="nonzero"></path>
    </g>
</svg>