<?xml version="1.0" encoding="UTF-8"?>
<svg width="36px" height="37px" viewBox="0 0 36 37" version="1.1" xmlns="http://www.w3.org/2000/svg" xmlns:xlink="http://www.w3.org/1999/xlink">
    <!-- Generator: Sketch 52.6 (67491) - http://www.bohemiancoding.com/sketch -->
    <title>seda-light</title>
    <desc>Created with Sketch.</desc>
    <defs>
        <linearGradient x1="1.69479144%" y1="100%" x2="40.8362431%" y2="58.2927576%" id="linearGradient-1">
            <stop stop-color="#032664" offset="0%"></stop>
            <stop stop-color="#115992" offset="100%"></stop>
        </linearGradient>
        <linearGradient x1="13.4227233%" y1="97.6092193%" x2="91.5440239%" y2="30.0766291%" id="linearGradient-2">
            <stop stop-color="#032664" offset="0%"></stop>
            <stop stop-color="#28B0E1" offset="51.6528179%"></stop>
            <stop stop-color="#2CD2A4" offset="100%"></stop>
        </linearGradient>
    </defs>
    <g id="Page-1" stroke="none" stroke-width="1" fill="none" fill-rule="evenodd">
        <g id="seda-light">
            <path d="M2.77679697,34.0680958 L34.1008827,34.0680958 C34.6859007,34.0680958 35.1601513,34.5423464 35.1601513,35.1273644 C35.1601513,35.7123824 34.6859007,36.186633 34.1008827,36.186633 L1.71752837,36.186633 C1.69294748,36.186633 1.66856214,36.1857959 1.64439933,36.1841483 C1.61854653,36.1857962 1.59247312,36.186633 1.56620429,36.186633 C0.897612409,36.186633 0.355611602,35.6446322 0.355611602,34.9760404 L0.355611602,1.98738966 C0.355611602,1.31879778 0.897612409,0.776796974 1.56620429,0.776796974 C2.23479617,0.776796974 2.77679697,1.31879778 2.77679697,1.98738966 L2.77679697,34.0680958 Z" id="Path" fill="url(#linearGradient-1)"></path>
            <path d="M15.4145686,21.0784986 C15.518896,22.2877889 14.6238535,23.3549861 13.4154351,23.4621503 C12.2070166,23.5693145 11.1428259,22.6758647 11.0384984,21.4665744 C10.934171,20.2572841 11.8292136,19.1900869 13.037632,19.0829227 C14.2460504,18.9757585 15.3102412,19.8692083 15.4145686,21.0784986 Z M11.5445139,28.772685 C11.5739777,29.1065458 11.3305659,29.4003698 11.0008384,29.4289592 C10.6711109,29.4575487 10.3799288,29.2100774 10.350465,28.8762166 C10.3210012,28.5423559 10.564413,28.2485319 10.8941405,28.2199424 C11.2238681,28.191353 11.5150501,28.4388243 11.5445139,28.772685 Z M5.65464088,26.2119521 C5.68410468,26.5458129 5.44069284,26.8396368 5.11096531,26.8682263 C4.78123782,26.8968157 4.49005571,26.6493444 4.46059191,26.3154837 C4.43112815,25.9816229 4.67453999,25.6877989 5.00426749,25.6592095 C5.33399501,25.63062 5.62517708,25.8780913 5.65464088,26.2119521 Z M15.0624437,26.667887 C15.1415155,27.5840071 14.4636641,28.3924372 13.5484203,28.4735662 C12.6331764,28.5546952 11.8271243,27.8778012 11.7480525,26.9616811 C11.6689807,26.045561 12.3468321,25.2371309 13.2620759,25.1560019 C14.1773198,25.0748729 14.9833719,25.7517669 15.0624437,26.667887 Z M6.42856449,19.1180523 C6.44820703,19.3406262 6.28593246,19.5365088 6.06611413,19.5555685 C5.84629577,19.5746281 5.65217439,19.4096472 5.63253186,19.1870734 C5.61288933,18.9644996 5.77516389,18.7686169 5.99498225,18.7495573 C6.21480058,18.7304976 6.40892196,18.8954785 6.42856449,19.1180523 Z M17.3748336,24.108038 C17.42394,24.6644726 17.0182536,25.1541792 16.4687077,25.2018283 C15.9191618,25.2494774 15.4338584,24.8370253 15.3847521,24.2805907 C15.3356457,23.724156 15.7413321,23.2344494 16.290878,23.1868003 C16.8404238,23.1391512 17.3257273,23.5516034 17.3748336,24.108038 Z M16.3833099,10.7796142 C16.4127737,11.113475 16.1693618,11.4072989 15.8396343,11.4358884 C15.5099068,11.4644779 15.2187247,11.2170066 15.1892609,10.8831458 C15.1597971,10.549285 15.403209,10.2554611 15.7329365,10.2268716 C16.062664,10.1982821 16.3538461,10.4457534 16.3833099,10.7796142 Z M31.866713,5.02005748 C31.8863555,5.24263134 31.724081,5.43851398 31.5042628,5.45757361 C31.2844443,5.47663324 31.090323,5.31165237 31.0706806,5.08907855 C31.0510378,4.8665047 31.2133126,4.67062205 31.4331308,4.65156239 C31.652949,4.63250276 31.8470706,4.79748363 31.866713,5.02005748 Z M14.3268262,14.6041574 C14.3464687,14.8267313 14.1841941,15.0226139 13.9643758,15.0416735 C13.7445574,15.0607332 13.5504361,14.8957523 13.5307935,14.6731785 C13.511151,14.4506046 13.6734255,14.254722 13.8932439,14.2356623 C14.1130622,14.2166027 14.3071836,14.3815836 14.3268262,14.6041574 Z M12.6128932,13.7633414 C12.642357,14.0972022 12.3989452,14.3910262 12.0692177,14.4196156 C11.7394901,14.4482051 11.4483081,14.2007338 11.4188443,13.866873 C11.3893805,13.5330122 11.6327923,13.2391883 11.9625198,13.2105988 C12.2922473,13.1820094 12.5834294,13.4294806 12.6128932,13.7633414 Z M21.8959271,15.4479098 C21.9920099,16.5613101 21.1680949,17.5438504 20.0556617,17.642475 C18.9432284,17.7410996 17.9635325,16.9184614 17.8674498,15.8050611 C17.7713671,14.6916609 18.595282,13.7091205 19.7077153,13.6104959 C20.8201486,13.5118713 21.7998444,14.3345095 21.8959271,15.4479098 Z M11.8193596,24.1310831 C11.8946096,24.9878939 11.2678723,25.7424073 10.4195026,25.8163359 C9.57113285,25.8902645 8.82239111,25.2556131 8.74714109,24.3988023 C8.67189107,23.5419915 9.29862843,22.7874781 10.1469981,22.7135495 C10.9953678,22.6396209 11.7441096,23.2742723 11.8193596,24.1310831 Z M7.67353175,31.2433869 C7.70299555,31.5772478 7.4595837,31.8710717 7.12985618,31.899661 C6.80012868,31.9282507 6.50894658,31.6807792 6.47948281,31.3469186 C6.45001901,31.0130578 6.69343086,30.7192338 7.02315835,30.6906443 C7.35288588,30.6620549 7.64406795,30.9095262 7.67353175,31.2433869 Z M23.9198338,14.5680926 C23.9492975,14.9019534 23.7058857,15.1957774 23.3761582,15.2243668 C23.0464307,15.2529563 22.7552486,15.005485 22.7257848,14.6716242 C22.696321,14.3377635 22.9397328,14.0439395 23.2694604,14.01535 C23.5991879,13.9867606 23.89037,14.2342319 23.9198338,14.5680926 Z M16.9370952,26.7927247 C16.9567378,27.0152986 16.7944632,27.2111812 16.5746448,27.2302409 C16.3548265,27.2493005 16.1607051,27.0843197 16.1410626,26.8617458 C16.1214201,26.639172 16.2836946,26.4432893 16.503513,26.4242297 C16.7233313,26.40517 16.9174527,26.5701509 16.9370952,26.7927247 Z M14.4942119,30.7495198 C14.5138544,30.9720936 14.3515799,31.1679764 14.1317615,31.187036 C13.9119432,31.2060955 13.7178218,31.0411147 13.6981793,30.8185409 C13.6785367,30.595967 13.8408113,30.4000844 14.0606296,30.3810247 C14.280448,30.3619651 14.4745694,30.5269459 14.4942119,30.7495198 Z M28.8112695,12.1118871 C28.830912,12.334461 28.6686375,12.5303436 28.4488191,12.5494032 C28.2290008,12.5684629 28.0348794,12.403482 28.0152369,12.1809082 C27.9955944,11.9583343 28.1578689,11.7624517 28.3776873,11.743392 C28.5975056,11.7243324 28.791627,11.8893133 28.8112695,12.1118871 Z M20.0591731,9.98721948 C20.108862,10.5502552 19.6983629,11.0457712 19.1422977,11.0939856 C18.5862325,11.1421999 18.0951718,10.7248548 18.0454829,10.1618191 C17.9957941,9.59878348 18.4062932,9.1032674 18.9623584,9.05505304 C19.5184236,9.0068387 20.0094842,9.42418381 20.0591731,9.98721948 Z M17.6558726,14.2315726 C17.7055614,14.7946083 17.2950624,15.2901243 16.7389972,15.3383387 C16.182932,15.3865531 15.6918713,14.9692079 15.6421824,14.4061723 C15.5924935,13.8431366 16.0029926,13.3476206 16.5590578,13.2994062 C17.115123,13.2511918 17.6061837,13.668537 17.6558726,14.2315726 Z M22.1406044,26.2663382 C22.1700682,26.600199 21.9266564,26.8940229 21.5969289,26.9226124 C21.2672014,26.9512019 20.9760193,26.7037306 20.9465555,26.3698698 C20.9170917,26.036009 21.1605035,25.7421851 21.490231,25.7135956 C21.8199586,25.6850061 22.1111406,25.9324774 22.1406044,26.2663382 Z M29.4512385,4.51587777 C29.5003449,5.07231238 29.0946584,5.56201898 28.5451126,5.60966809 C27.9955667,5.6573172 27.5102632,5.24486503 27.4611569,4.68843042 C27.4120506,4.1319958 27.817737,3.64228919 28.3672829,3.59464009 C28.9168287,3.546991 29.4021322,3.95944316 29.4512385,4.51587777 Z M23.8409963,5.76776729 C23.8704601,6.10162808 23.6270483,6.39545203 23.2973207,6.42404147 C22.9675932,6.45263095 22.6764111,6.20515966 22.6469473,5.8712989 C22.6174835,5.5374381 22.8608954,5.24361416 23.1906229,5.21502468 C23.5203504,5.18643523 23.8115325,5.43390652 23.8409963,5.76776729 Z M19.5493488,19.9538117 C19.6279189,20.8441071 18.9788206,21.6276377 18.0995473,21.7038762 C17.2202739,21.7801148 16.4437883,21.1201913 16.3652182,20.2298959 C16.2866481,19.3396005 16.9357463,18.55607 17.8150197,18.4798314 C18.6942931,18.4035928 19.4707786,19.0635163 19.5493488,19.9538117 Z M26.3034425,15.381537 C26.3525488,15.9379716 25.9468624,16.4276782 25.3973166,16.4753273 C24.8477707,16.5229764 24.3624673,16.1105242 24.3133609,15.5540896 C24.2642546,14.997655 24.669941,14.5079484 25.2194869,14.4602993 C25.7690327,14.4126502 26.2543362,14.8251023 26.3034425,15.381537 Z M22.5970443,22.3682584 C22.6559719,23.0359799 22.1691482,23.6236279 21.5096932,23.6808068 C20.8502382,23.7379857 20.267874,23.2430431 20.2089464,22.5753216 C20.1500189,21.9076 20.6368425,21.3199521 21.2962976,21.2627732 C21.9557526,21.2055943 22.5381168,21.7005368 22.5970443,22.3682584 Z M10.3153117,20.3825149 C10.3728184,21.048784 9.87983562,21.6367332 9.21420373,21.6957361 C8.54857184,21.754739 7.96235214,21.2624524 7.90484535,20.5961833 C7.8473386,19.9299141 8.34032142,19.341965 9.00595331,19.2829621 C9.6715852,19.2239592 10.2578049,19.7162458 10.3153117,20.3825149 Z M9.89369379,27.3163961 C9.95838477,28.0659492 9.40377552,28.7273891 8.65493932,28.7937633 C7.9061031,28.8601376 7.246609,28.3063116 7.18191799,27.5567584 C7.117227,26.8072053 7.67183625,26.1457654 8.42067245,26.0793912 C9.16950868,26.0130169 9.82900277,26.5668429 9.89369379,27.3163961 Z M11.8302519,18.0298244 C11.8498944,18.2523982 11.6876198,18.4482808 11.4678015,18.4673405 C11.2479832,18.4864001 11.0538618,18.3214193 11.0342192,18.0988454 C11.0145767,17.8762716 11.1768513,17.6803889 11.3966696,17.6613293 C11.616488,17.6422697 11.8106093,17.8072505 11.8302519,18.0298244 Z M6.61184009,22.3217554 C6.64130388,22.6556161 6.39789204,22.9494401 6.06816451,22.9780296 C5.73843702,23.006619 5.44725492,22.7591477 5.41779112,22.4252869 C5.38832735,22.0914262 5.63173916,21.7976022 5.96146669,21.7690128 C6.29119421,21.7404233 6.58237629,21.9878946 6.61184009,22.3217554 Z M28.9283772,17.1271775 C28.9480197,17.3497514 28.7857452,17.545634 28.5659268,17.5646937 C28.3461085,17.5837533 28.1519871,17.4187725 28.1323445,17.1961986 C28.112702,16.9736247 28.2749766,16.7777421 28.4947949,16.7586825 C28.7146133,16.7396228 28.9087347,16.9046037 28.9283772,17.1271775 Z M32.8945395,2.57960736 C32.914182,2.80218121 32.7519075,2.99806385 32.5320893,3.01712349 C32.3122708,3.03618312 32.1181495,2.87120226 32.098507,2.64862842 C32.0788643,2.42605457 32.2411391,2.23017193 32.4609573,2.21111229 C32.6807758,2.19205265 32.8748971,2.35703351 32.8945395,2.57960736 Z M25.2843982,18.2352676 C25.3562817,19.0681041 24.7400532,19.8030405 23.9080133,19.8767941 C23.0759734,19.9505478 22.3431988,19.3351896 22.2713154,18.5023531 C22.1994319,17.6695167 22.8156604,16.9345802 23.6477003,16.8608266 C24.4797402,16.787073 25.2125148,17.4024312 25.2843982,18.2352676 Z M31.0578788,8.65469911 C31.0775213,8.87727296 30.9152468,9.0731556 30.6954283,9.09221523 C30.4756101,9.1112749 30.2814887,8.94629402 30.2618461,8.72372017 C30.2422036,8.50114632 30.4044782,8.30526368 30.6242966,8.28620405 C30.8441148,8.26714442 31.0382364,8.43212529 31.0578788,8.65469911 Z M16.6839039,16.9931434 C16.7428315,17.6608649 16.2560078,18.2485129 15.5965528,18.3056918 C14.9370977,18.3628707 14.3547336,17.8679281 14.295806,17.2002066 C14.2368784,16.532485 14.723702,15.9448371 15.3831571,15.8876582 C16.0426121,15.8304793 16.6249763,16.3254219 16.6839039,16.9931434 Z M22.756805,12.0755751 C22.8059113,12.6320097 22.4002249,13.1217163 21.8506791,13.1693654 C21.3011332,13.2170145 20.8158297,12.8045624 20.7667234,12.2481277 C20.7176171,11.6916931 21.1233035,11.2019865 21.6728494,11.1543374 C22.2223952,11.1066883 22.7076987,11.5191405 22.756805,12.0755751 Z M24.8172035,8.06995757 C24.8663098,8.62639221 24.4606234,9.11609881 23.9110776,9.16374792 C23.3615317,9.211397 22.8762282,8.79894483 22.8271219,8.24251022 C22.7780156,7.6860756 23.183702,7.19636901 23.7332478,7.1487199 C24.2827937,7.10107082 24.7680972,7.51352296 24.8172035,8.06995757 Z M26.4751853,10.9375192 C26.5417207,11.6942046 25.988667,12.3604491 25.2399053,12.4256178 C24.4911435,12.4907866 23.8302146,11.9302016 23.7636791,11.1735162 C23.6971436,10.4168308 24.2501973,9.75058635 24.9989591,9.68541758 C25.7477209,9.6202488 26.4086498,10.1808338 26.4751853,10.9375192 Z M28.7356478,9.03112797 C28.7847542,9.58756258 28.3790678,10.0772692 27.8295219,10.1249183 C27.279976,10.1725674 26.7946726,9.76011523 26.7455662,9.20368062 C26.6964599,8.647246 27.1021463,8.15753938 27.6516922,8.1098903 C28.201238,8.06224119 28.6865415,8.47469336 28.7356478,9.03112797 Z" id="Combined-Shape" fill="url(#linearGradient-2)" fill-rule="nonzero" transform="translate(18.677163, 17.055761) rotate(-4.000000) translate(-18.677163, -17.055761) "></path>
        </g>
    </g>
</svg>