<?xml version="1.0" encoding="UTF-8"?>
<svg width="240px" viewBox="0 0 793 180" version="1.1" xmlns="http://www.w3.org/2000/svg" xmlns:xlink="http://www.w3.org/1999/xlink">

    <defs>
        <linearGradient x1="1.69479144%" y1="100%" x2="40.8362431%" y2="58.2927576%" id="linearGradient-1">
            <stop stop-color="#032664" offset="0%"></stop>
            <stop stop-color="#115992" offset="100%"></stop>
        </linearGradient>
        <linearGradient x1="13.4227233%" y1="97.6092193%" x2="91.5440239%" y2="30.0766291%" id="linearGradient-2">
            <stop stop-color="#032664" offset="0%"></stop>
            <stop stop-color="#28B0E1" offset="51.6528179%"></stop>
            <stop stop-color="#2CD2A4" offset="100%"></stop>
        </linearGradient>
    </defs>
    <g id="SEDA-logo" stroke="none" stroke-width="1" fill="none" fill-rule="evenodd">
        <rect x="0" y="0" width="793" height="180"></rect>
        <path d="M190.669645,32.99712 L190.669645,67.6594176 L182.947558,67.6594176 L182.947558,32.99712 L171.567642,32.99712 L171.567642,26.2620672 L202.514048,26.2620672 L202.514048,32.99712 L190.669645,32.99712 Z M215.858624,67.6594176 L208.542963,67.6594176 L208.542963,22.9526016 L215.858624,22.9526016 L215.858624,40.0805376 C217.890752,36.0162816 221.664704,33.4616064 226.948237,33.4616064 C235.018688,33.4616064 239.024883,38.5709568 239.024883,46.8736512 L239.024883,67.6594176 L231.360858,67.6594176 L231.360858,48.96384 C231.360858,43.6803072 229.502912,40.0805376 223.987136,40.0805376 C218.645542,40.0805376 215.858624,44.2028544 215.858624,50.1831168 L215.858624,67.6594176 Z M278.032333,57.7890816 C276.116326,64.5821952 270.716672,68.5303296 261.949491,68.5303296 C250.685696,68.5303296 245.16992,62.02752 245.16992,51.6926976 L245.16992,50.8798464 C245.16992,47.2800768 245.86665,44.318976 247.260109,41.6481792 C250.047027,36.4227072 255.156378,33.4616064 262.181734,33.4616064 C267.929754,33.4616064 271.99401,35.4356736 274.664806,38.6290176 C277.335603,41.8223616 278.496819,45.9446784 278.496819,50.2411776 L278.496819,53.7828864 L252.717824,53.7828864 C253.356493,59.2406016 256.724019,62.2597632 262.239795,62.2597632 C266.304051,62.2597632 268.684544,60.6921216 269.84576,57.7890816 L278.032333,57.7890816 Z M262.239795,39.4999296 C256.956262,39.4999296 253.646797,42.5190912 252.775885,47.802624 L270.890854,47.802624 C270.368307,42.6932736 267.581389,39.4999296 262.239795,39.4999296 Z M333.055155,67.6594176 L303.67639,67.6594176 L303.67639,26.2620672 L332.068122,26.2620672 L332.068122,32.8229376 L311.050112,32.8229376 L311.050112,43.448064 L328.874778,43.448064 L328.874778,50.0669952 L311.050112,50.0669952 L311.050112,60.866304 L333.055155,60.866304 L333.055155,67.6594176 Z M362.25033,60.6921216 C360.450445,65.220864 356.676493,68.3561472 350.69623,68.3561472 C342.161293,68.3561472 336.529395,62.3758848 336.529395,51.1120896 L336.529395,50.2992384 C336.529395,46.641408 337.168064,43.5641856 338.387341,41.0675712 C340.825894,36.0743424 345.238515,33.5196672 350.928474,33.5196672 C356.44425,33.5196672 360.10208,35.90016 362.018086,40.0224768 L362.018086,22.9526016 L369.391808,22.9526016 L369.391808,67.6594176 L363.063181,67.6594176 L362.25033,60.6921216 Z M353.018662,61.7952768 C358.708621,61.7952768 362.192269,57.67296 362.192269,51.0540288 L362.192269,50.4734208 C362.192269,44.028672 358.824742,39.8482944 353.308966,39.8482944 C347.560947,39.8482944 344.367603,43.738368 344.367603,50.41536 L344.367603,51.0540288 C344.367603,58.1955072 347.967373,61.7952768 353.018662,61.7952768 Z M399.225651,61.2727296 C397.541888,65.6272896 393.942118,68.3561472 388.426342,68.3561472 C380.413952,68.3561472 376.64,63.2467968 376.64,54.9441024 L376.64,34.2744576 L384.245965,34.2744576 L384.245965,52.8539136 C384.245965,58.0793856 385.813606,61.6791552 391.039078,61.6791552 C396.090368,61.6791552 398.645043,57.5568384 398.645043,51.6346368 L398.645043,34.2744576 L406.309069,34.2744576 L406.309069,67.6594176 L399.922381,67.6594176 L399.225651,61.2727296 Z M429.059494,68.5303296 C418.376307,68.5303296 412.279923,62.5500672 412.279923,51.6346368 L412.279923,50.7637248 C412.279923,47.0478336 413.034714,43.8544896 414.486234,41.2998144 C417.447334,36.190464 422.672806,33.4616064 429.117555,33.4616064 C438.349222,33.4616064 444.67785,37.8161664 445.43264,47.5703808 L445.43264,47.6865024 L437.47831,47.6865024 L437.47831,47.51232 C436.781581,42.286848 433.82048,39.964416 429.175616,39.964416 C423.834022,39.964416 420.176192,43.6803072 420.176192,50.7637248 L420.176192,51.5185152 C420.176192,58.1374464 423.543718,61.8533376 429.117555,61.8533376 C433.994662,61.8533376 436.781581,59.2986624 437.536371,54.189312 L437.536371,54.1312512 L445.490701,54.1312512 L445.490701,54.3054336 C444.73591,64.1757696 438.291162,68.5303296 429.059494,68.5303296 Z M474.860058,60.9824256 C472.595687,65.3369856 468.125005,68.5303296 461.21577,68.5303296 C453.95817,68.5303296 450.300339,65.0466816 450.300339,59.5889664 C450.300339,55.8730752 451.926042,53.0861568 454.654899,51.4023936 C455.583872,50.7637248 456.570906,50.2992384 457.499879,50.0089344 C459.473946,49.3122048 461.97056,48.8477184 466.150938,48.2090496 C472.1312,47.4542592 474.511693,46.641408 474.511693,43.9125504 C474.511693,41.125632 472.711808,39.383808 467.486336,39.383808 C461.97056,39.383808 459.473946,41.7643008 459.241703,46.0608 L451.403495,46.0608 C451.926042,38.4548352 457.499879,33.4616064 467.079911,33.4616064 C470.737741,33.4616064 473.524659,33.9260928 475.73097,34.9131264 C480.08553,36.771072 481.827354,40.3127808 481.827354,45.1318272 L481.827354,67.6594176 L475.672909,67.6594176 L474.860058,60.9824256 Z M463.828506,62.6661888 C466.034816,62.6661888 467.892762,62.1436416 469.518464,61.156608 C472.769869,59.12448 474.569754,55.7569536 474.569754,52.5636096 L474.569754,50.7637248 C473.176295,51.7507584 470.853863,52.447488 467.834701,52.9119744 C463.770445,53.5506432 462.144743,54.0151296 460.577101,55.0021632 C459.241703,55.8730752 458.603034,57.0342912 458.603034,58.4858112 C458.603034,61.2727296 460.344858,62.6661888 463.828506,62.6661888 Z M508.293671,67.6594176 L503.997171,67.6594176 C500.861888,67.6594176 498.423335,67.1949312 496.797632,66.4401408 C493.430106,64.7563776 492.385011,61.0985472 492.385011,54.3054336 L492.385011,41.0095104 L485.882202,41.0095104 L485.882202,34.5647616 L488.843303,34.5647616 C489.946458,34.5647616 490.701248,34.44864 491.223795,34.2163968 C492.326951,33.6938496 492.675315,32.416512 492.849498,29.6876544 C492.907559,28.2361344 492.965619,26.2620672 492.965619,25.2750336 L499.468429,25.2750336 L499.468429,34.2744576 L508.293671,34.2744576 L508.293671,41.0095104 L499.468429,41.0095104 L499.468429,53.028096 C499.468429,55.2344064 499.642611,56.8601088 499.932915,57.963264 C500.455463,60.1695744 502.197287,60.576 505.913178,60.576 L508.293671,60.576 L508.293671,67.6594176 Z M518.328781,30.674688 C514.670951,30.674688 513.277491,29.4554112 513.277491,25.6233984 C513.277491,21.9075072 514.961255,20.6301696 518.328781,20.6301696 C521.696307,20.6301696 523.380071,21.9075072 523.380071,25.6233984 C523.380071,29.223168 521.754368,30.674688 518.328781,30.674688 Z M514.380647,67.6594176 L514.380647,34.2744576 L522.102733,34.2744576 L522.102733,67.6594176 L514.380647,67.6594176 Z M545.259584,68.5303296 C534.460275,68.5303296 528.421952,62.5500672 528.421952,51.6346368 L528.421952,50.7637248 C528.421952,47.0478336 529.176743,43.8544896 530.628263,41.2998144 C533.531303,36.190464 538.698714,33.4616064 545.259584,33.4616064 C548.627111,33.4616064 551.47209,34.1002752 553.968704,35.4937344 C559.078055,38.222592 562.097216,43.3900032 562.097216,50.7637248 L562.097216,51.6346368 C562.097216,55.2924672 561.400487,58.3116288 560.007027,60.8082432 C557.103987,65.8595328 552.052698,68.5303296 545.259584,68.5303296 Z M545.259584,61.8533376 C551.007603,61.8533376 554.37513,58.1374464 554.37513,51.5185152 L554.37513,50.7637248 C554.37513,43.9125504 550.833421,39.964416 545.317645,39.964416 C539.85993,39.964416 536.202099,43.6803072 536.202099,50.7637248 L536.202099,51.5185152 C536.202099,58.1374464 539.569626,61.8533376 545.259584,61.8533376 Z M576.138522,67.6594176 L568.474496,67.6594176 L568.474496,34.2744576 L574.919245,34.2744576 L575.615975,40.9514496 C577.415859,36.3646464 581.189811,33.4616064 586.937831,33.4616064 C595.008282,33.4616064 599.304781,38.8032 599.304781,47.1058944 L599.304781,67.6594176 L591.640755,67.6594176 L591.640755,48.96384 C591.640755,43.5061248 589.898931,40.0805376 584.441216,40.0805376 C578.751258,40.0805376 576.138522,44.028672 576.138522,50.2411776 L576.138522,67.6594176 Z M629.428928,60.9824256 C627.164557,65.3369856 622.693875,68.5303296 615.78464,68.5303296 C608.52704,68.5303296 604.86921,65.0466816 604.86921,59.5889664 C604.86921,55.8730752 606.494912,53.0861568 609.22377,51.4023936 C610.152743,50.7637248 611.139776,50.2992384 612.068749,50.0089344 C614.042816,49.3122048 616.539431,48.8477184 620.719808,48.2090496 C626.700071,47.4542592 629.080563,46.641408 629.080563,43.9125504 C629.080563,41.125632 627.280679,39.383808 622.055207,39.383808 C616.539431,39.383808 614.042816,41.7643008 613.810573,46.0608 L605.972365,46.0608 C606.494912,38.4548352 612.068749,33.4616064 621.648781,33.4616064 C625.306611,33.4616064 628.09353,33.9260928 630.29984,34.9131264 C634.6544,36.771072 636.396224,40.3127808 636.396224,45.1318272 L636.396224,67.6594176 L630.241779,67.6594176 L629.428928,60.9824256 Z M618.397376,62.6661888 C620.603687,62.6661888 622.461632,62.1436416 624.087335,61.156608 C627.338739,59.12448 629.138624,55.7569536 629.138624,52.5636096 L629.138624,50.7637248 C627.745165,51.7507584 625.422733,52.447488 622.403571,52.9119744 C618.339315,53.5506432 616.713613,54.0151296 615.145971,55.0021632 C613.810573,55.8730752 613.171904,57.0342912 613.171904,58.4858112 C613.171904,61.2727296 614.913728,62.6661888 618.397376,62.6661888 Z M644.166963,67.6594176 L644.166963,22.9526016 L651.772928,22.9526016 L651.772928,67.6594176 L644.166963,67.6594176 Z M190.32128,148.189747 C178.883302,148.189747 172.554675,142.035302 172.554675,128.507136 L172.554675,125.023488 C172.554675,120.668928 173.309466,117.127219 174.760986,114.166118 C177.722086,108.185856 183.237862,105.166694 190.379341,105.166694 C193.97911,105.166694 197.056333,105.863424 199.78519,107.431066 C205.126784,110.450227 208.262067,116.314368 208.262067,125.023488 L208.262067,128.507136 C208.262067,141.86112 201.352832,148.189747 190.32128,148.189747 Z M190.379341,141.222451 C197.056333,141.222451 200.365798,136.693709 200.365798,128.216832 L200.365798,125.371853 C200.365798,116.604672 197.056333,112.017869 190.379341,112.017869 C183.586227,112.017869 180.450944,116.778854 180.450944,125.313792 L180.450944,128.216832 C180.450944,136.693709 183.586227,141.222451 190.379341,141.222451 Z M233.509107,148.015565 C227.993331,148.015565 224.335501,145.51895 222.361434,141.454694 L222.361434,158.814874 L214.987712,158.814874 L214.987712,113.933875 L221.316339,113.933875 L222.12919,120.726989 C223.929075,116.140186 227.819149,113.121024 233.625229,113.121024 C242.334349,113.121024 247.850125,119.275469 247.850125,130.539264 L247.850125,131.352115 C247.850125,135.009946 247.211456,138.029107 245.992179,140.525722 C243.553626,145.51895 239.082944,148.015565 233.509107,148.015565 Z M231.128614,141.570816 C236.818573,141.570816 240.128038,137.854925 240.128038,131.235994 L240.128038,130.539264 C240.128038,123.397786 236.528269,119.623834 231.302797,119.623834 C225.787021,119.623834 222.187251,123.804211 222.187251,130.423142 L222.187251,131.00375 C222.187251,137.448499 225.612838,141.570816 231.128614,141.570816 Z M272.632678,148.015565 C267.116902,148.015565 263.459072,145.51895 261.485005,141.454694 L261.485005,158.814874 L254.111283,158.814874 L254.111283,113.933875 L260.43991,113.933875 L261.252762,120.726989 C263.052646,116.140186 266.94272,113.121024 272.7488,113.121024 C281.45792,113.121024 286.973696,119.275469 286.973696,130.539264 L286.973696,131.352115 C286.973696,135.009946 286.335027,138.029107 285.11575,140.525722 C282.677197,145.51895 278.206515,148.015565 272.632678,148.015565 Z M270.252186,141.570816 C275.942144,141.570816 279.25161,137.854925 279.25161,131.235994 L279.25161,130.539264 C279.25161,123.397786 275.65184,119.623834 270.426368,119.623834 C264.910592,119.623834 261.310822,123.804211 261.310822,130.423142 L261.310822,131.00375 C261.310822,137.448499 264.73641,141.570816 270.252186,141.570816 Z M309.375757,148.189747 C298.576448,148.189747 292.538125,142.209485 292.538125,131.294054 L292.538125,130.423142 C292.538125,126.707251 293.292915,123.513907 294.744435,120.959232 C297.647475,115.849882 302.814886,113.121024 309.375757,113.121024 C312.743283,113.121024 315.588262,113.759693 318.084877,115.153152 C323.194227,117.88201 326.213389,123.049421 326.213389,130.423142 L326.213389,131.294054 C326.213389,134.951885 325.516659,137.971046 324.1232,140.467661 C321.22016,145.51895 316.16887,148.189747 309.375757,148.189747 Z M309.375757,141.512755 C315.123776,141.512755 318.491302,137.796864 318.491302,131.177933 L318.491302,130.423142 C318.491302,123.571968 314.949594,119.623834 309.433818,119.623834 C303.976102,119.623834 300.318272,123.339725 300.318272,130.423142 L300.318272,131.177933 C300.318272,137.796864 303.685798,141.512755 309.375757,141.512755 Z M332.590669,147.318835 L332.590669,113.933875 L338.745114,113.933875 L339.732147,121.772083 C341.067546,116.256307 344.493133,113.643571 350.82176,113.643571 L353.086131,113.643571 L353.086131,121.365658 L349.776666,121.365658 C347.105869,121.365658 345.131802,121.714022 343.738342,122.410752 C340.951424,123.74615 340.080512,126.64919 340.080512,131.874662 L340.080512,147.318835 L332.590669,147.318835 Z M379.610509,147.318835 L375.31401,147.318835 C372.178726,147.318835 369.740173,146.854349 368.11447,146.099558 C364.746944,144.415795 363.70185,140.757965 363.70185,133.964851 L363.70185,120.668928 L357.19904,120.668928 L357.19904,114.224179 L360.160141,114.224179 C361.263296,114.224179 362.018086,114.108058 362.540634,113.875814 C363.643789,113.353267 363.992154,112.07593 364.166336,109.347072 C364.224397,107.895552 364.282458,105.921485 364.282458,104.934451 L370.785267,104.934451 L370.785267,113.933875 L379.610509,113.933875 L379.610509,120.668928 L370.785267,120.668928 L370.785267,132.687514 C370.785267,134.893824 370.95945,136.519526 371.249754,137.622682 C371.772301,139.828992 373.514125,140.235418 377.230016,140.235418 L379.610509,140.235418 L379.610509,147.318835 Z M407.644467,140.932147 C405.960704,145.286707 402.360934,148.015565 396.845158,148.015565 C388.832768,148.015565 385.058816,142.906214 385.058816,134.60352 L385.058816,113.933875 L392.664781,113.933875 L392.664781,132.513331 C392.664781,137.738803 394.232422,141.338573 399.457894,141.338573 C404.509184,141.338573 407.063859,137.216256 407.063859,131.294054 L407.063859,113.933875 L414.727885,113.933875 L414.727885,147.318835 L408.341197,147.318835 L407.644467,140.932147 Z M430.16265,147.318835 L422.498624,147.318835 L422.498624,113.933875 L428.943373,113.933875 L429.640102,120.610867 C431.439987,116.024064 435.213939,113.121024 440.961958,113.121024 C449.03241,113.121024 453.328909,118.462618 453.328909,126.765312 L453.328909,147.318835 L445.664883,147.318835 L445.664883,128.623258 C445.664883,123.165542 443.923059,119.739955 438.465344,119.739955 C432.775386,119.739955 430.16265,123.68809 430.16265,129.900595 L430.16265,147.318835 Z M464.641357,110.334106 C460.983527,110.334106 459.590067,109.114829 459.590067,105.282816 C459.590067,101.566925 461.273831,100.289587 464.641357,100.289587 C468.008883,100.289587 469.692647,101.566925 469.692647,105.282816 C469.692647,108.882586 468.066944,110.334106 464.641357,110.334106 Z M460.693223,147.318835 L460.693223,113.933875 L468.415309,113.933875 L468.415309,147.318835 L460.693223,147.318835 Z M496.333146,147.318835 L492.036647,147.318835 C488.901363,147.318835 486.46281,146.854349 484.837107,146.099558 C481.469581,144.415795 480.424487,140.757965 480.424487,133.964851 L480.424487,120.668928 L473.921677,120.668928 L473.921677,114.224179 L476.882778,114.224179 C477.985933,114.224179 478.740723,114.108058 479.263271,113.875814 C480.366426,113.353267 480.714791,112.07593 480.888973,109.347072 C480.947034,107.895552 481.005095,105.921485 481.005095,104.934451 L487.507904,104.934451 L487.507904,113.933875 L496.333146,113.933875 L496.333146,120.668928 L487.507904,120.668928 L487.507904,132.687514 C487.507904,134.893824 487.682087,136.519526 487.972391,137.622682 C488.494938,139.828992 490.236762,140.235418 493.952653,140.235418 L496.333146,140.235418 L496.333146,147.318835 Z M501.200845,159.801907 L501.200845,153.182976 L505.090919,153.182976 C506.542439,153.182976 507.761715,153.008794 508.632627,152.77655 C510.432512,152.254003 511.419546,150.918605 512.754944,148.015565 L513.393613,146.447923 L499.575143,113.933875 L507.703655,113.933875 L516.761139,136.519526 L517.051443,138.029107 L517.457869,136.577587 L526.283111,113.933875 L534.295501,113.933875 L519.664179,149.234842 C517.748173,153.879706 516.238592,156.550502 514.264525,158.002022 C512.232397,159.453542 509.5616,159.801907 505.032858,159.801907 L501.200845,159.801907 Z M564.642483,134.255155 L564.642483,147.318835 L557.15264,147.318835 L557.15264,105.921485 L572.770995,105.921485 C576.486887,105.921485 579.506048,106.502093 581.944602,107.72137 C586.821709,110.043802 589.202202,114.398362 589.202202,119.972198 C589.202202,128.681318 584.034791,134.313216 573.061299,134.255155 L564.642483,134.255155 Z M564.642483,112.424294 L564.642483,127.752346 L572.945178,127.752346 C578.460954,127.752346 581.596237,125.023488 581.596237,119.972198 C581.596237,115.443456 578.751258,112.424294 572.770995,112.424294 L564.642483,112.424294 Z M595.231117,147.318835 L595.231117,113.933875 L601.385562,113.933875 L602.372595,121.772083 C603.707994,116.256307 607.133581,113.643571 613.462208,113.643571 L615.726579,113.643571 L615.726579,121.365658 L612.417114,121.365658 C609.746317,121.365658 607.77225,121.714022 606.378791,122.410752 C603.591872,123.74615 602.72096,126.64919 602.72096,131.874662 L602.72096,147.318835 L595.231117,147.318835 Z M635.573965,148.189747 C624.774656,148.189747 618.736333,142.209485 618.736333,131.294054 L618.736333,130.423142 C618.736333,126.707251 619.491123,123.513907 620.942643,120.959232 C623.845683,115.849882 629.013095,113.121024 635.573965,113.121024 C638.941491,113.121024 641.786471,113.759693 644.283085,115.153152 C649.392435,117.88201 652.411597,123.049421 652.411597,130.423142 L652.411597,131.294054 C652.411597,134.951885 651.714867,137.971046 650.321408,140.467661 C647.418368,145.51895 642.367079,148.189747 635.573965,148.189747 Z M635.573965,141.512755 C641.321984,141.512755 644.689511,137.796864 644.689511,131.177933 L644.689511,130.423142 C644.689511,123.571968 641.147802,119.623834 635.632026,119.623834 C630.174311,119.623834 626.51648,123.339725 626.51648,130.423142 L626.51648,131.177933 C626.51648,137.796864 629.884007,141.512755 635.573965,141.512755 Z M662.795072,110.334106 C659.137242,110.334106 657.743783,109.114829 657.743783,105.282816 C657.743783,101.566925 659.427546,100.289587 662.795072,100.289587 C666.162599,100.289587 667.846362,101.566925 667.846362,105.282816 C667.846362,108.882586 666.220659,110.334106 662.795072,110.334106 Z M652.053824,161.021184 L652.053824,153.937766 L653.737587,153.937766 C655.189107,153.937766 656.350323,153.821645 657.105114,153.589402 C658.672755,153.066854 659.02112,151.615334 659.02112,147.957504 L659.02112,113.933875 L666.452903,113.933875 L666.452903,148.886477 C666.452903,153.763584 665.930355,156.840806 664.130471,158.640691 C662.446707,160.324454 659.369485,161.021184 654.492378,161.021184 L652.053824,161.021184 Z M705.402291,137.448499 C703.486285,144.241613 698.086631,148.189747 689.31945,148.189747 C678.055655,148.189747 672.539879,141.686938 672.539879,131.352115 L672.539879,130.539264 C672.539879,126.939494 673.236608,123.978394 674.630067,121.307597 C677.416986,116.082125 682.526336,113.121024 689.551693,113.121024 C695.299712,113.121024 699.363968,115.095091 702.034765,118.288435 C704.705562,121.481779 705.866778,125.604096 705.866778,129.900595 L705.866778,133.442304 L680.087783,133.442304 C680.726451,138.900019 684.093978,141.919181 689.609754,141.919181 C693.67401,141.919181 696.054503,140.351539 697.215719,137.448499 L705.402291,137.448499 Z M689.609754,119.159347 C684.326221,119.159347 681.016755,122.178509 680.145843,127.462042 L698.260813,127.462042 C697.738266,122.352691 694.951347,119.159347 689.609754,119.159347 Z M727.978535,148.189747 C717.295347,148.189747 711.198963,142.209485 711.198963,131.294054 L711.198963,130.423142 C711.198963,126.707251 711.953754,123.513907 713.405274,120.959232 C716.366375,115.849882 721.591847,113.121024 728.036595,113.121024 C737.268263,113.121024 743.59689,117.475584 744.35168,127.229798 L744.35168,127.34592 L736.397351,127.34592 L736.397351,127.171738 C735.700621,121.946266 732.73952,119.623834 728.094656,119.623834 C722.753063,119.623834 719.095232,123.339725 719.095232,130.423142 L719.095232,131.177933 C719.095232,137.796864 722.462759,141.512755 728.036595,141.512755 C732.913703,141.512755 735.700621,138.95808 736.455411,133.84873 L736.455411,133.790669 L744.409741,133.790669 L744.409741,133.964851 C743.654951,143.835187 737.210202,148.189747 727.978535,148.189747 Z M769.656781,147.318835 L765.360282,147.318835 C762.224999,147.318835 759.786445,146.854349 758.160743,146.099558 C754.793216,144.415795 753.748122,140.757965 753.748122,133.964851 L753.748122,120.668928 L747.245312,120.668928 L747.245312,114.224179 L750.206413,114.224179 C751.309568,114.224179 752.064359,114.108058 752.586906,113.875814 C753.690061,113.353267 754.038426,112.07593 754.212608,109.347072 C754.270669,107.895552 754.32873,105.921485 754.32873,104.934451 L760.831539,104.934451 L760.831539,113.933875 L769.656781,113.933875 L769.656781,120.668928 L760.831539,120.668928 L760.831539,132.687514 C760.831539,134.893824 761.005722,136.519526 761.296026,137.622682 C761.818573,139.828992 763.560397,140.235418 767.276288,140.235418 L769.656781,140.235418 L769.656781,147.318835 Z" id="TheEducationalOpportunityProject" fill="#032664" fill-rule="nonzero"></path>
        <g id="Group" transform="translate(21.000000, 29.000000)">
            <path d="M8,110 L111.5,110 C113.432997,110 115,111.567003 115,113.5 C115,115.432997 113.432997,117 111.5,117 L4.5,117 C4.41878064,117 4.33820742,116.997234 4.25836944,116.99179 C4.17294748,116.997235 4.08679659,117 4,117 C1.790861,117 2.705415e-16,115.209139 0,113 L0,4 C-2.705415e-16,1.790861 1.790861,4.05812251e-16 4,0 C6.209139,-4.05812251e-16 8,1.790861 8,4 L8,110 Z" id="Path" fill="url(#linearGradient-1)"></path>
            <path d="M49.7573037,67.0802057 C50.102019,71.0759025 47.1446491,74.6021 43.1518333,74.9561883 C39.1590174,75.3102766 35.6427538,72.3581697 35.2980385,68.362473 C34.9533233,64.3667762 37.9106932,60.8405787 41.903509,60.4864904 C45.8963248,60.132402 49.4125885,63.084509 49.7573037,67.0802057 Z M36.9699981,92.5030801 C37.0673514,93.6062117 36.2630781,94.5770551 35.1736035,94.6715194 C34.0841288,94.7659838 33.1220147,93.9482974 33.0246614,92.8451657 C32.9273081,91.7420341 33.7315814,90.7711908 34.821056,90.6767264 C35.9105307,90.5822621 36.8726448,91.3999485 36.9699981,92.5030801 Z M17.5088759,84.0419917 C17.6062292,85.1451233 16.8019559,86.1159666 15.7124812,86.210431 C14.6230066,86.3048953 13.6608924,85.4872089 13.5635391,84.3840773 C13.4661859,83.2809456 14.2704592,82.3101023 15.3599338,82.215638 C16.4494085,82.1211736 17.4115226,82.93886 17.5088759,84.0419917 Z M48.5938243,85.5484767 C48.8550907,88.5754901 46.6153568,91.2466779 43.5912386,91.5147416 C40.5671203,91.7828053 37.9037899,89.5462346 37.6425235,86.5192211 C37.3812571,83.4922077 39.620991,80.8210199 42.6451092,80.5529562 C45.6692275,80.2848925 48.3325579,82.5214632 48.5938243,85.5484767 Z M20.0660485,60.6025646 C20.1309507,61.3379856 19.5947685,61.9852145 18.8684521,62.0481908 C18.1421356,62.111167 17.5007262,61.5660427 17.435824,60.8306216 C17.3709218,60.0952006 17.907104,59.4479717 18.6334205,59.3849954 C19.3597369,59.3220192 20.0011463,59.8671435 20.0660485,60.6025646 Z M56.2343461,77.0903089 C56.3966016,78.9288616 55.0561461,80.5469338 53.240355,80.7043744 C51.4245639,80.861815 49.8210403,79.4990043 49.6587849,77.6604516 C49.4965294,75.8218989 50.8369849,74.2038266 52.652776,74.0463861 C54.4685671,73.8889455 56.0720906,75.2517562 56.2343461,77.0903089 Z M52.9581863,33.0509753 C53.0555396,34.1541069 52.2512663,35.1249502 51.1617917,35.2194146 C50.072317,35.3138789 49.1102029,34.4961925 49.0128496,33.3930609 C48.9154963,32.2899293 49.7197696,31.3190859 50.8092442,31.2246216 C51.8987189,31.1301572 52.860833,31.9478436 52.9581863,33.0509753 Z M104.117931,14.0204399 C104.182833,14.755861 103.646651,15.4030899 102.920335,15.4660661 C102.194018,15.5290423 101.552609,14.983918 101.487707,14.248497 C101.422804,13.5130759 101.958987,12.865847 102.685303,12.8028707 C103.411619,12.7398945 104.053029,13.2850188 104.117931,14.0204399 Z M46.1632214,45.6879034 C46.2281236,46.4233245 45.6919414,47.0705534 44.965625,47.1335296 C44.2393085,47.1965058 43.5978991,46.6513816 43.5329969,45.9159605 C43.4680947,45.1805394 44.0042769,44.5333105 44.7305934,44.4703343 C45.4569098,44.407358 46.0983192,44.9524823 46.1632214,45.6879034 Z M40.5001014,42.9097072 C40.5974546,44.0128388 39.7931814,44.9836822 38.7037067,45.0781465 C37.614232,45.1726109 36.6521179,44.3549245 36.5547646,43.2517928 C36.4574113,42.1486612 37.2616846,41.1778179 38.3511593,41.0833535 C39.4406339,40.9888892 40.4027481,41.8065756 40.5001014,42.9097072 Z M71.1727926,48.4758019 C71.490266,52.154662 68.7679137,55.4011389 65.0922487,55.7270111 C61.4165837,56.0528833 58.1795054,53.3347496 57.862032,49.6558895 C57.5445587,45.9770294 60.2669109,42.7305524 63.9425759,42.4046802 C67.618241,42.0788081 70.8553192,44.7969418 71.1727926,48.4758019 Z M37.878134,77.1664537 C38.1267726,79.9974994 36.0559279,82.4905373 33.252773,82.7348098 C30.4496181,82.9790822 27.9756506,80.8820882 27.727012,78.0510425 C27.4783734,75.2199968 29.5492181,72.7269589 32.352373,72.4826864 C35.1555279,72.238414 37.6294954,74.335408 37.878134,77.1664537 Z M24.1796278,100.666691 C24.2769811,101.769823 23.4727078,102.740666 22.3832331,102.83513 C21.2937585,102.929595 20.3316443,102.111908 20.2342911,101.008777 C20.1369378,99.905645 20.9412111,98.9348016 22.0306857,98.8403373 C23.1201604,98.745873 24.0822745,99.5635594 24.1796278,100.666691 Z M77.8601174,45.5687394 C77.9574706,46.6718711 77.1531974,47.6427144 76.0637227,47.7371787 C74.974248,47.8316431 74.0121339,47.0139567 73.9147806,45.910825 C73.8174273,44.8076934 74.6217006,43.8368501 75.7111753,43.7423857 C76.8006499,43.6479214 77.7627641,44.4656078 77.8601174,45.5687394 Z M54.7879855,85.9609613 C54.8528877,86.6963824 54.3167055,87.3436113 53.590389,87.4065875 C52.8640726,87.4695638 52.2226632,86.9244395 52.157761,86.1890184 C52.0928588,85.4535973 52.629041,84.8063684 53.3553574,84.7433922 C54.0816739,84.680416 54.7230833,85.2255403 54.7879855,85.9609613 Z M46.7162918,99.0348716 C46.7811939,99.7702927 46.2450118,100.417522 45.5186953,100.480498 C44.7923789,100.543474 44.1509694,99.9983498 44.0860673,99.2629287 C44.0211651,98.5275076 44.5573473,97.8802787 45.2836637,97.8173025 C46.0099801,97.7543263 46.6513896,98.2994505 46.7162918,99.0348716 Z M94.0222363,37.453027 C94.0871385,38.1884481 93.5509563,38.835677 92.8246399,38.8986532 C92.0983235,38.9616294 91.456914,38.4165051 91.3920118,37.6810841 C91.3271097,36.945663 91.8632918,36.2984341 92.5896083,36.2354578 C93.3159247,36.1724816 93.9573342,36.7176059 94.0222363,37.453027 Z M65.1038512,30.432771 C65.2680315,32.2931347 63.911674,33.9304023 62.074342,34.0897106 C60.2370099,34.2490189 58.6144635,32.870041 58.4502832,31.0096774 C58.2861029,29.1493137 59.6424604,27.512046 61.4797924,27.3527377 C63.3171245,27.1934295 64.9396708,28.5724073 65.1038512,30.432771 Z M57.1629456,44.4568212 C57.3271259,46.3171849 55.9707685,47.9544525 54.1334364,48.1137608 C52.2961044,48.2730691 50.673558,46.8940912 50.5093777,45.0337275 C50.3451974,43.1733639 51.7015548,41.5360962 53.5388869,41.3767879 C55.3762189,41.2174796 56.9987653,42.5964575 57.1629456,44.4568212 Z M71.9812471,84.2216925 C72.0786004,85.3248241 71.2743271,86.2956674 70.1848524,86.3901318 C69.0953778,86.4845961 68.1332636,85.6669097 68.0359103,84.5637781 C67.9385571,83.4606465 68.7428303,82.4898031 69.832305,82.3953388 C70.9217797,82.3008744 71.8838938,83.1185608 71.9812471,84.2216925 Z M96.1368006,12.3545461 C96.2990561,14.1930988 94.9586006,15.811171 93.1428095,15.9686116 C91.3270184,16.1260522 89.7234948,14.7632415 89.5612394,12.9246888 C89.3989839,11.0861361 90.7394394,9.46806382 92.5552305,9.31062326 C94.3710216,9.15318271 95.9745452,10.5159934 96.1368006,12.3545461 Z M77.5996253,16.4909977 C77.6969786,17.5941294 76.8927053,18.5649727 75.8032306,18.659437 C74.7137559,18.7539014 73.7516418,17.936215 73.6542885,16.8330834 C73.5569352,15.7299517 74.3612085,14.7591084 75.4506832,14.664644 C76.5401579,14.5701797 77.502272,15.3878661 77.5996253,16.4909977 Z M63.4193065,63.3640528 C63.6789152,66.3057371 61.5341864,68.8946527 58.6289207,69.1465576 C55.7236549,69.3984625 53.1580172,67.2179654 52.8984084,64.2762811 C52.6387997,61.3345967 54.7835285,58.7456811 57.6887942,58.4937762 C60.59406,58.2418713 63.1596977,60.4223684 63.4193065,63.3640528 Z M85.735958,48.256495 C85.8982134,50.0950477 84.5577579,51.7131199 82.7419668,51.8705605 C80.9261757,52.028001 79.3226522,50.6651904 79.1603967,48.8266377 C78.9981412,46.9880849 80.3385967,45.3700127 82.1543878,45.2125721 C83.9701789,45.0551316 85.5737025,46.4179422 85.735958,48.256495 Z M73.4894006,71.341787 C73.6841072,73.5480503 72.0755606,75.489737 69.8966113,75.6786657 C67.717662,75.8675943 65.7934337,74.2322215 65.5987271,72.0259583 C65.4040206,69.819695 67.0125671,67.8780083 69.1915165,67.6890797 C71.3704658,67.500151 73.2946941,69.1355238 73.4894006,71.341787 Z M32.908509,64.7805596 C33.0985209,66.9820239 31.4696235,68.9247059 29.2702648,69.1196613 C27.0709061,69.3146167 25.1339385,67.6880199 24.9439265,65.4865555 C24.7539146,63.2850912 26.382812,61.3424092 28.5821707,61.1474538 C30.7815294,60.9524984 32.7184971,62.5790953 32.908509,64.7805596 Z M31.5154132,87.6912586 C31.729163,90.1679072 29.8966416,92.3534148 27.422362,92.5727263 C24.9480823,92.7920379 22.7690039,90.9621046 22.555254,88.485456 C22.3415042,86.0088074 24.1740256,83.8232999 26.6483052,83.6039883 C29.1225849,83.3846768 31.3016633,85.21461 31.5154132,87.6912586 Z M37.9141239,57.006878 C37.9790261,57.742299 37.4428439,58.3895279 36.7165274,58.4525042 C35.990211,58.5154804 35.3488016,57.9703561 35.2838994,57.234935 C35.2189972,56.4995139 35.7551794,55.852285 36.4814958,55.7893088 C37.2078123,55.7263326 37.8492217,56.2714569 37.9141239,57.006878 Z M20.6716216,71.1881333 C20.7689749,72.2912649 19.9647016,73.2621083 18.8752269,73.3565726 C17.7857523,73.4510369 16.8236381,72.6333505 16.7262848,71.5302189 C16.6289316,70.4270873 17.4332048,69.4562439 18.5226795,69.3617796 C19.6121542,69.2673153 20.5742683,70.0850017 20.6716216,71.1881333 Z M94.4091796,54.0243824 C94.4740818,54.7598035 93.9378996,55.4070324 93.2115832,55.4700086 C92.4852668,55.5329849 91.8438573,54.9878606 91.7789551,54.2524395 C91.714053,53.5170184 92.2502351,52.8697895 92.9765516,52.8068133 C93.702868,52.7438371 94.3442775,53.2889614 94.4091796,54.0243824 Z M107.514041,5.95678594 C107.578943,6.69220703 107.042761,7.33943592 106.316445,7.40241215 C105.590128,7.46538837 104.948719,6.9202641 104.883817,6.18484302 C104.818914,5.44942194 105.355097,4.80219304 106.081413,4.73921681 C106.80773,4.67624059 107.449139,5.22136486 107.514041,5.95678594 Z M82.3688658,57.6856967 C82.6063807,60.4375271 80.570259,62.8658797 77.8210606,63.1095739 C75.0718622,63.3532682 72.6506527,61.3200221 72.4131378,58.5681917 C72.1756229,55.8163613 74.2117446,53.3880087 76.960943,53.1443145 C79.7101414,52.9006202 82.1313509,54.9338663 82.3688658,57.6856967 Z M101.445408,26.0299016 C101.51031,26.7653227 100.974128,27.4125516 100.247811,27.4755278 C99.521495,27.5385041 98.8800855,26.9933798 98.8151833,26.2579587 C98.7502812,25.5225376 99.2864633,24.8753087 100.01278,24.8123325 C100.739096,24.7493563 101.380506,25.2944806 101.445408,26.0299016 Z M53.951399,53.5815113 C54.1461056,55.7877745 52.537559,57.7294612 50.3586097,57.9183899 C48.1796604,58.1073185 46.2554321,56.4719457 46.0607255,54.2656825 C45.866019,52.0594192 47.4745655,50.1177325 49.6535149,49.9288039 C51.8324642,49.7398752 53.7566925,51.375248 53.951399,53.5815113 Z M74.0172765,37.333046 C74.179532,39.1715987 72.8390765,40.7896709 71.0232854,40.9471115 C69.2074943,41.104552 67.6039707,39.7417414 67.4417153,37.9031886 C67.2794598,36.0646359 68.6199153,34.4465637 70.4357064,34.2891231 C72.2514975,34.1316826 73.8550211,35.4944932 74.0172765,37.333046 Z M80.8251765,24.0978181 C80.9874319,25.9363709 79.6469765,27.5544431 77.8311854,27.7118837 C76.0153943,27.8693242 74.4118707,26.5065135 74.2496152,24.6679608 C74.0873598,22.8294081 75.4278152,21.2113359 77.2436063,21.0538953 C79.0593974,20.8964548 80.662921,22.2592654 80.8251765,24.0978181 Z M86.3034247,33.5727197 C86.5232689,36.0729344 84.6958873,38.2743171 82.2218537,38.4896456 C79.74782,38.704974 77.5640006,36.8527078 77.3441563,34.3524931 C77.1243121,31.8522784 78.9516937,29.6508957 81.4257273,29.4355672 C83.899761,29.2202387 86.0835805,31.072505 86.3034247,33.5727197 Z M93.7723697,27.2736853 C93.9346252,29.112238 92.5941697,30.7303102 90.7783786,30.8877508 C88.9625875,31.0451913 87.3590639,29.6823807 87.1968084,27.843828 C87.034553,26.0052753 88.3750085,24.387203 90.1907996,24.2297625 C92.0065907,24.0723219 93.6101142,25.4351326 93.7723697,27.2736853 Z" id="Combined-Shape" fill="url(#linearGradient-2)" transform="translate(60.537460, 53.788411) rotate(-4.000000) translate(-60.537460, -53.788411) "></path>
        </g>
    </g>
</svg>