<?xml version="1.0" encoding="UTF-8"?>
<svg width="26px" height="26px" viewBox="0 0 26 26" version="1.1" xmlns="http://www.w3.org/2000/svg" xmlns:xlink="http://www.w3.org/1999/xlink">
    <!-- Generator: Sketch 52.6 (67491) - http://www.bohemiancoding.com/sketch -->
    <title>trend-icon</title>
    <desc>Created with Sketch.</desc>
    <defs>
        <linearGradient x1="66.0317073%" y1="116.469439%" x2="24.8872163%" y2="-106.654986%" id="linearGradient-1">
            <stop stop-color="#0032A3" offset="0%"></stop>
            <stop stop-color="#179BFF" offset="70.6572496%"></stop>
            <stop stop-color="#169CF7" offset="100%"></stop>
        </linearGradient>
        <linearGradient x1="71.8389583%" y1="116.469439%" x2="15.7904784%" y2="-106.654986%" id="linearGradient-2">
            <stop stop-color="#0032A3" offset="0%"></stop>
            <stop stop-color="#179BFF" offset="70.6572496%"></stop>
            <stop stop-color="#169CF7" offset="100%"></stop>
        </linearGradient>
        <linearGradient x1="62.4254035%" y1="116.469439%" x2="30.5362919%" y2="-106.654986%" id="linearGradient-3">
            <stop stop-color="#0032A3" offset="0%"></stop>
            <stop stop-color="#179BFF" offset="70.6572496%"></stop>
            <stop stop-color="#169CF7" offset="100%"></stop>
        </linearGradient>
    </defs>
    <g id="Page-1" stroke="none" stroke-width="1" fill="none" fill-rule="evenodd">
        <g id="trend-icon">
            <circle id="tend-bg" fill="#EEFCFF" cx="13" cy="13" r="13"></circle>
            <path d="M16.0070775,19.6310688 C16.0782843,20.1430795 15.720942,20.6158708 15.2089312,20.6870775 C14.6969205,20.7582843 14.2241292,20.400942 14.1529225,19.8889312 C13.8861901,17.9709977 13.0423239,15.8841809 11.6093195,13.632553 C10.0396121,11.1661284 9.10612589,8.8297371 8.82165729,6.61948136 C8.75566956,6.10677183 9.11780913,5.63764501 9.63051865,5.57165728 C10.1432282,5.50566955 10.612355,5.86780912 10.6783427,6.38051864 C10.9247074,8.29471603 11.7571964,10.3783247 13.1886061,12.627447 C14.7567189,15.091366 15.7002107,17.4245492 16.0070775,19.6310688 Z" id="trend-line" fill="url(#linearGradient-1)" transform="translate(12.415006, 13.130006) rotate(90.000000) translate(-12.415006, -13.130006) "></path>
            <path d="M16.7283662,15.3279594 C16.8333862,15.8341177 16.5081994,16.3295757 16.0020411,16.4345957 C15.4958828,16.5396158 15.0004248,16.2144289 14.8954048,15.7082706 C14.5124552,13.8625932 13.4800789,11.7684885 11.786261,9.43848922 C9.94794971,6.90972626 8.80230463,4.58351441 8.36143423,2.44729906 C8.25695077,1.94102972 8.58266259,1.44591675 9.08893193,1.34143329 C9.59520127,1.23694983 10.0903142,1.56266165 10.1947977,2.06893099 C10.5756227,3.91419932 11.6068005,6.00798747 13.3004396,8.33774083 C15.1385722,10.8662579 16.2852193,13.1921532 16.7283662,15.3279594 Z" id="trend-line" fill="url(#linearGradient-2)" transform="translate(12.545001, 8.888116) rotate(90.000000) translate(-12.545001, -8.888116) "></path>
            <path d="M15.7119222,23.6219079 C15.7554666,24.1370092 15.3731943,24.589881 14.858093,24.6334254 C14.3429917,24.6769698 13.8901199,24.2946975 13.8465755,23.7795962 C13.7180669,22.2594266 12.976448,20.1787371 11.6101317,17.5700247 C10.1271725,14.7386054 9.37475275,12.37198 9.37475275,10.4407521 C9.37475275,9.92381348 9.79381423,9.504752 10.3107528,9.504752 C10.8276913,9.504752 11.2467528,9.92381348 11.2467528,10.4407521 C11.2467528,12.0174929 11.9133578,14.1142007 13.2684481,16.7014795 C14.7401814,19.5114649 15.5585351,21.8074421 15.7119222,23.6219079 Z" id="trend-line" fill="url(#linearGradient-3)" transform="translate(12.545027, 17.070779) rotate(90.000000) translate(-12.545027, -17.070779) "></path>
        </g>
    </g>
</svg>